<?xml version="1.0" standalone="no"?>
<!DOCTYPE svg PUBLIC "-//W3C//DTD SVG 20010904//EN"
 "http://www.w3.org/TR/2001/REC-SVG-20010904/DTD/svg10.dtd">
<svg version="1.0" xmlns="http://www.w3.org/2000/svg"
 width="1940.000000pt" height="581.000000pt" viewBox="0 0 1940.000000 581.000000"
 preserveAspectRatio="xMidYMid meet">

<g transform="translate(0.000000,581.000000) scale(0.100000,-0.100000)"
fill="#000000" stroke="none">
<path d="M7875 5766 c-160 -44 -997 -346 -1416 -511 -130 -51 -505 -208 -832
-349 -614 -263 -683 -288 -802 -287 -34 0 -74 -6 -92 -15 -18 -8 -104 -31
-190 -51 -185 -41 -349 -89 -488 -143 -55 -21 -127 -46 -160 -55 -121 -34
-255 -131 -255 -184 0 -44 10 -51 74 -51 33 0 169 -9 301 -20 370 -31 451 -34
589 -20 167 16 384 16 471 0 39 -7 129 -28 200 -47 72 -19 153 -41 180 -48 28
-7 84 -22 125 -33 41 -11 143 -37 225 -58 130 -32 405 -106 443 -119 10 -4 9
-10 -4 -29 -9 -14 -29 -58 -45 -98 -15 -40 -32 -72 -36 -71 -11 3 -693 285
-978 405 l-240 101 -180 -12 c-99 -7 -184 -17 -190 -23 -7 -8 -5 -9 8 -5 10 4
28 2 40 -5 12 -6 37 -11 55 -10 19 1 43 -3 54 -9 10 -6 38 -12 61 -14 23 -2
60 -8 82 -13 53 -13 192 -67 209 -81 7 -6 16 -8 19 -4 4 3 7 2 7 -4 0 -6 15
-16 33 -24 17 -7 44 -21 59 -31 15 -11 37 -20 48 -21 11 -1 20 -5 20 -10 0 -4
5 -5 10 -2 6 3 10 1 10 -5 0 -5 16 -18 35 -27 19 -9 35 -21 35 -25 0 -5 5 -6
10 -3 6 3 10 1 10 -6 0 -7 3 -10 6 -6 22 21 95 -107 82 -143 -4 -12 -5 -27 -1
-33 4 -7 -1 -6 -10 2 -15 12 -17 12 -11 -3 4 -11 1 -16 -10 -16 -8 0 -20 -9
-26 -20 -6 -11 -14 -19 -18 -18 -4 1 -22 -6 -41 -16 -18 -10 -30 -13 -27 -7
10 16 0 13 -18 -5 -11 -11 -16 -12 -16 -3 0 7 -6 4 -15 -7 -9 -12 -17 -15 -22
-9 -7 10 -21 11 -40 5 -9 -3 -45 -6 -88 -9 -24 -1 -27 -3 -15 -12 26 -18 -56
0 -170 37 -58 19 -161 47 -230 62 -118 25 -140 27 -395 27 -250 0 -281 -2
-415 -27 -138 -25 -279 -46 -359 -54 -20 -2 -56 -6 -81 -10 -43 -5 -72 -9
-165 -19 -22 -2 -69 -7 -105 -11 -36 -3 -75 -7 -87 -8 -13 0 -23 -4 -23 -8 0
-3 -16 -5 -35 -3 -19 2 -35 -1 -35 -6 0 -6 -5 -7 -11 -3 -6 3 -15 1 -19 -7 -7
-10 -11 -10 -24 0 -9 8 -16 9 -16 4 0 -5 -6 -10 -12 -11 -7 -1 -24 -3 -38 -5
-14 -1 -29 -5 -35 -9 -5 -3 -21 -4 -35 -3 -14 1 -29 -1 -35 -5 -5 -3 -21 -7
-34 -8 -13 0 -27 -5 -30 -9 -3 -4 -22 -8 -41 -8 -19 0 -42 -3 -51 -7 -9 -4
-35 -8 -57 -9 -23 -2 -42 -6 -42 -10 0 -4 -15 -6 -32 -6 -47 1 -161 -24 -173
-38 -5 -6 -53 -31 -105 -56 -160 -74 -567 -277 -694 -346 -246 -134 -537 -316
-888 -557 -88 -60 -85 -60 -336 -78 -144 -10 -175 -10 -182 1 -6 11 -10 9 -19
-7 -11 -21 -11 -21 96 -16 59 2 168 11 241 19 137 15 153 14 193 -22 15 -12
21 -10 49 16 18 16 44 32 59 35 79 18 128 26 203 36 46 6 99 13 118 16 19 2
60 9 90 14 30 5 80 12 110 15 30 3 80 10 110 15 95 16 253 39 315 45 33 4 71
9 85 11 93 15 203 27 247 28 29 1 53 4 53 7 0 10 136 38 293 60 81 11 157 23
170 25 12 3 27 6 34 6 7 1 10 5 7 10 -5 8 9 12 33 9 7 -1 13 2 13 7 0 5 8 18
17 30 10 11 27 33 38 48 43 60 61 74 75 61 10 -9 11 -9 6 1 -4 7 -1 15 8 18 9
3 16 14 17 23 0 10 2 12 6 3 3 -7 -1 -19 -7 -28 -11 -12 -10 -13 3 -8 17 6 30
31 22 44 -8 13 21 6 39 -9 9 -7 17 -11 17 -7 1 3 2 10 3 15 0 5 64 72 141 148
101 101 170 159 249 212 117 77 235 141 262 141 10 0 -26 -22 -78 -48 -151
-77 -272 -166 -399 -292 -132 -132 -223 -261 -292 -415 l-45 -100 -254 -3
-254 -3 -37 26 c-42 28 -47 29 -47 15 0 -5 21 -21 46 -36 l46 -27 244 5 c217
5 245 4 239 -10 -3 -8 -17 -54 -30 -101 -76 -267 -89 -624 -35 -991 26 -176
31 -201 68 -315 17 -49 28 -93 25 -98 -8 -13 -224 -7 -788 23 -622 33 -786 44
-955 65 -234 29 -228 29 -260 -5 -39 -41 -60 -91 -60 -140 0 -122 134 -209
385 -250 33 -6 71 -12 85 -14 37 -6 110 -16 161 -22 24 -2 58 -6 74 -9 17 -2
66 -7 110 -10 44 -4 91 -8 104 -10 13 -2 73 -7 133 -10 61 -4 117 -8 127 -10
9 -1 75 -6 146 -10 72 -3 146 -8 165 -10 19 -2 98 -7 175 -10 77 -3 169 -8
205 -10 36 -3 124 -7 195 -10 114 -5 313 -26 385 -40 14 -3 43 -7 65 -10 22
-2 51 -7 65 -10 43 -9 84 -16 115 -20 47 -5 108 -14 135 -20 13 -3 49 -7 80
-10 31 -3 67 -7 80 -10 14 -3 61 -8 105 -11 44 -3 98 -7 120 -9 222 -18 624
-23 805 -11 47 3 123 8 170 11 47 3 103 8 125 10 22 2 78 7 125 10 47 4 96 9
110 11 104 20 822 25 1580 10 711 -13 2790 -3 3990 19 140 3 379 7 530 10 499
9 1209 24 1440 30 91 2 269 7 395 10 127 3 286 7 355 10 69 3 235 7 370 10
135 3 270 7 300 10 87 7 560 20 720 20 129 0 311 -9 410 -20 19 -2 62 -6 95
-9 33 -3 83 -9 110 -12 28 -3 82 -7 120 -10 39 -2 117 -7 175 -11 203 -14 700
-7 875 11 17 2 66 7 110 11 44 4 83 8 86 10 3 2 28 7 55 10 27 4 56 8 64 10 8
3 33 7 55 10 22 3 51 8 65 11 14 3 36 8 49 10 23 5 66 15 199 48 31 8 116 31
187 51 72 19 198 47 280 61 83 14 160 27 173 29 102 17 182 58 218 112 25 37
38 108 28 149 -38 159 -198 281 -471 360 -45 13 -89 27 -99 31 -13 5 -15 3 -9
-8 6 -11 5 -11 -4 -3 -10 9 -10 17 -1 33 6 12 15 19 20 16 6 -4 7 1 3 11 -4
11 -2 15 4 11 12 -8 36 40 27 55 -4 6 -3 8 3 5 6 -4 15 4 20 16 10 20 33 27
239 66 126 24 246 50 267 58 36 15 157 136 157 158 0 5 39 37 85 70 47 33 93
65 103 72 14 10 8 13 -38 14 l-55 1 65 12 c36 7 88 24 115 38 68 35 222 139
265 178 l35 31 -40 -28 -40 -28 40 46 c22 25 55 59 73 74 18 15 51 54 73 87
39 57 150 275 146 287 -1 3 11 31 26 62 42 85 24 104 -79 78 -25 -6 -47 -9
-50 -6 -3 3 54 74 126 159 73 84 137 163 143 176 18 39 -1 36 -40 -6 -33 -37
-52 -47 -158 -81 -139 -45 -148 -44 -191 31 -16 27 -44 58 -61 69 -27 17 -31
24 -23 39 16 30 12 35 -12 14 -14 -12 -18 -13 -10 -3 27 35 -16 25 -130 -32
-15 -8 -18 -4 -18 23 l-1 33 -13 -30 c-9 -21 -10 -32 -2 -37 11 -8 -4 -12 -35
-9 -9 1 -48 -32 -86 -73 -54 -58 -78 -94 -111 -167 -23 -52 -42 -88 -42 -81 0
7 -4 11 -9 8 -11 -7 -9 13 2 32 5 7 13 9 19 6 8 -5 9 -1 5 10 -5 11 -3 15 4
10 7 -4 10 -1 7 7 -3 8 0 25 7 39 26 52 127 368 175 550 13 47 31 111 41 143
28 89 33 125 19 142 -10 12 -9 16 1 19 8 2 43 13 79 24 l65 21 -55 -6 c-82
-10 -205 1 -195 18 3 4 42 22 88 39 132 49 172 70 182 93 9 20 23 26 103 46 2
1 -6 14 -17 29 -24 34 -99 88 -108 78 -8 -8 -83 63 -83 79 0 6 -13 19 -30 28
-16 10 -30 21 -30 25 0 4 27 34 61 67 68 67 105 121 44 65 -27 -25 -36 -29
-30 -15 12 29 9 65 -7 81 -11 12 -24 7 -83 -33 -38 -25 -93 -66 -123 -90 -29
-24 -55 -43 -58 -43 -6 0 26 48 70 103 17 22 80 75 139 119 114 83 197 155
197 169 0 5 -42 -24 -92 -64 -51 -40 -109 -83 -128 -95 l-35 -24 25 24 c14 12
46 40 70 60 72 60 42 44 -55 -30 -102 -77 -183 -172 -423 -496 -215 -291 -306
-382 -132 -132 41 59 89 129 105 155 17 26 48 65 70 87 22 21 92 107 156 189
129 166 155 192 317 315 101 76 137 118 119 136 -3 3 -22 -10 -44 -28 -21 -19
-76 -63 -123 -98 -47 -35 -97 -74 -112 -88 -25 -23 -29 -24 -45 -10 -25 21
-70 37 -121 43 -39 5 -89 -13 -475 -169 -503 -203 -696 -276 -746 -283 l-36
-4 45 40 c25 23 48 41 53 41 4 0 23 10 43 23 30 19 34 26 30 50 -4 21 -2 26 7
20 19 -12 36 -12 44 -1 3 7 1 8 -5 4 -6 -3 -15 1 -20 11 -9 15 -12 15 -26 3
-10 -7 -15 -19 -12 -26 3 -8 0 -11 -9 -7 -8 3 -12 10 -8 17 3 6 3 8 -2 4 -4
-4 -15 -2 -23 5 -13 9 -14 9 -8 -1 5 -8 1 -11 -16 -8 -13 2 -22 9 -20 16 1 6
-2 8 -8 5 -6 -4 -9 -13 -6 -20 5 -14 -18 -14 -31 0 -4 4 -2 5 6 0 9 -5 12 -4
7 3 -4 6 -13 9 -21 6 -8 -4 -13 -10 -10 -14 3 -5 1 -12 -5 -15 -6 -4 -9 -1 -8
5 2 7 -8 14 -22 16 -24 4 -24 4 -5 -10 19 -13 18 -14 -8 -9 -15 3 -24 9 -22
13 3 5 0 12 -6 16 -8 4 -9 3 -5 -4 4 -7 2 -12 -4 -12 -6 0 -8 -5 -4 -12 5 -9
2 -9 -9 1 -14 11 -17 11 -17 0 0 -12 -2 -12 -9 -1 -6 11 -10 10 -15 -5 -7 -17
-8 -17 -21 0 -11 16 -13 16 -19 2 -3 -10 -11 -13 -18 -9 -19 12 -81 4 -99 -12
-11 -10 -18 -11 -26 -3 -7 7 -15 5 -27 -6 -9 -9 -16 -12 -16 -7 0 6 -8 9 -17
7 -10 -2 -18 -4 -18 -5 0 -2 -24 -7 -75 -15 -25 -4 -48 -12 -52 -18 -5 -8 -8
-7 -8 3 0 10 -3 11 -8 4 -4 -6 -22 -10 -40 -8 -17 1 -35 -3 -39 -9 -4 -6 -1
-7 8 -2 8 5 10 4 6 0 -12 -14 -38 -15 -30 -2 4 7 -1 6 -10 -2 -9 -7 -17 -10
-17 -6 0 4 -8 1 -17 -6 -14 -12 -16 -12 -8 0 6 11 5 12 -6 5 -8 -5 -25 -10
-39 -12 -13 -2 -31 -9 -39 -15 -12 -10 -13 -9 -6 3 7 13 6 13 -7 2 -8 -7 -42
-13 -74 -15 -33 -1 -62 -6 -66 -12 -5 -6 -8 -5 -8 4 0 11 -3 11 -17 0 -15 -12
-16 -12 -8 1 5 9 -1 7 -15 -5 -14 -12 -20 -14 -15 -5 8 13 7 13 -8 1 -14 -11
-17 -11 -17 0 0 9 -3 10 -8 4 -4 -5 -16 -10 -27 -10 -11 1 -23 -4 -27 -10 -5
-7 -8 -7 -8 0 0 6 -17 9 -40 7 -23 -2 -37 -8 -34 -14 4 -6 -3 -5 -15 1 -14 8
-21 8 -21 1 0 -5 -5 -10 -11 -10 -5 0 -7 5 -3 11 4 8 0 8 -15 0 -13 -7 -21 -8
-21 -2 0 6 -7 8 -15 5 -8 -4 -13 -10 -10 -15 3 -4 -5 -6 -17 -3 -13 3 -27 6
-33 7 -5 2 -15 6 -22 10 -6 4 -14 3 -18 -2 -4 -7 -15 -7 -30 -1 -18 7 -25 6
-25 -3 0 -8 -3 -8 -9 2 -7 11 -9 11 -14 0 -4 -10 -6 -10 -6 -1 -1 8 -18 12
-50 12 -28 0 -53 5 -56 10 -4 6 -12 7 -22 1 -16 -9 -50 -4 -68 9 -5 4 -19 4
-30 0 -23 -8 -57 -1 -50 10 3 5 -5 6 -17 2 -16 -4 -19 -2 -13 9 6 11 5 11 -5
2 -13 -12 -43 -7 -35 6 2 4 -2 8 -10 8 -8 0 -12 -4 -10 -8 3 -4 -3 -6 -12 -4
-10 2 -22 4 -26 4 -5 1 -6 5 -3 10 4 5 -4 7 -16 3 -14 -3 -19 -1 -14 6 5 8 1
10 -10 5 -13 -5 -15 -3 -9 7 5 9 4 11 -3 6 -6 -4 -21 -2 -33 5 -16 8 -20 8
-14 -1 4 -7 -4 -6 -27 3 -37 16 -42 17 -63 17 -8 0 -15 5 -15 11 0 5 5 7 12 3
7 -4 8 -3 4 5 -6 9 -11 9 -24 -1 -12 -10 -14 -10 -8 -1 4 8 2 13 -8 13 -8 0
-19 8 -25 18 -5 9 -13 16 -18 16 -4 -1 -7 2 -5 8 1 5 -2 7 -8 3 -5 -3 -21 5
-35 19 -14 14 -28 26 -30 26 -8 0 -7 11 1 18 4 4 4 1 -1 -7 -5 -10 -4 -12 4
-7 6 4 9 12 5 17 -3 5 -9 7 -14 4 -4 -3 -13 2 -19 9 -8 10 -9 16 -1 21 6 3 7
12 3 18 -14 22 -14 49 -1 41 10 -6 11 -4 1 7 -7 7 -13 17 -13 22 0 4 6 5 13 1
10 -6 10 -4 0 7 -23 23 -14 36 41 60 30 13 52 27 50 31 -5 8 11 12 30 9 5 -1
6 5 3 13 -4 9 0 13 11 11 9 -1 22 2 29 7 7 5 18 6 24 2 7 -4 9 -3 6 3 -4 7 18
15 61 23 99 17 111 18 311 25 102 3 194 7 205 10 12 2 93 7 181 10 88 3 161 8
163 9 8 9 -551 18 -708 12 -528 -19 -485 -15 -605 -56 -60 -21 -200 -72 -310
-113 -393 -148 -986 -344 -1325 -437 -63 -18 -156 -45 -205 -60 -137 -43 -482
-125 -610 -145 -72 -11 -3314 -477 -3445 -495 -138 -19 -187 -23 -165 -15 12
5 966 148 1740 261 1013 147 1324 193 1565 230 129 20 253 38 275 40 39 3 60
7 300 59 159 34 534 133 554 146 13 9 12 9 -4 4 -11 -3 -54 -13 -95 -22 -106
-22 -103 -21 -123 -22 -12 -1 -16 -5 -11 -13 5 -9 2 -9 -9 1 -12 9 -17 10 -17
2 0 -7 -4 -9 -10 -6 -5 3 -16 3 -22 -2 -16 -9 -31 -13 -88 -20 -24 -3 -54 -12
-66 -20 -12 -7 -26 -13 -30 -12 -9 3 -78 -8 -119 -18 -11 -3 -32 -7 -47 -10
-16 -3 -28 -9 -28 -12 0 -4 -10 -7 -22 -6 -13 1 -31 -2 -40 -7 -10 -5 -42 -13
-72 -19 -51 -9 -56 -8 -98 19 -171 114 -408 253 -408 239 0 -3 38 -26 85 -51
89 -48 258 -158 310 -201 l30 -25 -55 1 c-30 1 -100 -8 -155 -19 -55 -12 -140
-23 -189 -24 -48 -2 -90 -6 -93 -11 -2 -4 -9 -4 -15 -1 -18 11 -79 6 -96 -8
-12 -10 -14 -10 -8 0 4 6 2 12 -3 12 -6 0 -11 -6 -11 -12 0 -9 -4 -8 -10 2 -5
8 -10 10 -10 4 0 -7 -11 -9 -26 -6 -21 4 -25 2 -19 -9 8 -12 6 -12 -8 0 -13
10 -17 10 -17 1 0 -10 -3 -10 -15 0 -11 9 -15 9 -15 1 0 -8 -5 -9 -19 -2 -10
6 -20 8 -23 6 -2 -3 -51 -7 -109 -10 -185 -11 -224 -13 -224 -15 0 -2 -40 -4
-89 -6 -48 -1 -95 -5 -103 -8 -8 -3 -11 -1 -8 4 3 6 2 10 -4 10 -5 0 -13 -5
-16 -10 -4 -6 -18 -10 -33 -10 -15 0 -47 -2 -72 -5 -54 -5 -256 -16 -357 -18
-40 -1 -73 -4 -73 -7 0 -3 -31 -4 -70 -4 -38 1 -68 -1 -66 -5 2 -3 -27 -6 -65
-6 -38 0 -69 -2 -69 -5 0 -3 -28 -6 -63 -6 -78 -2 -153 -10 -168 -20 -7 -4 -9
-3 -5 4 4 7 -8 9 -36 7 -24 -1 -45 -4 -48 -5 -3 -1 -40 -2 -82 -2 -43 -1 -76
-4 -73 -7 2 -4 -11 -6 -28 -5 -91 7 -127 7 -133 2 -3 -4 -12 -4 -20 -1 -8 3
-22 -1 -31 -8 -14 -12 -16 -12 -8 0 6 11 4 13 -9 8 -10 -4 -42 -7 -72 -7 -39
0 -53 -3 -48 -12 5 -7 3 -8 -7 -2 -22 13 -42 14 -58 1 -12 -9 -13 -9 -7 1 5 9
-6 12 -44 12 -38 0 -49 -3 -44 -12 6 -10 4 -10 -8 0 -12 9 -18 10 -23 2 -5 -8
-11 -8 -21 1 -10 8 -14 8 -14 0 0 -6 -5 -11 -11 -11 -5 0 -8 3 -6 8 6 8 -40 7
-148 -3 -38 -3 -135 -8 -215 -10 -80 -1 -152 -6 -160 -9 -8 -3 -24 -4 -35 -2
-11 2 -26 -2 -34 -8 -11 -8 -13 -8 -7 2 4 6 3 12 -3 12 -5 0 -13 -5 -16 -10
-4 -6 -12 -7 -18 -3 -20 12 -87 14 -109 2 -15 -8 -18 -8 -14 0 4 6 0 11 -9 11
-9 0 -13 -5 -9 -11 4 -8 1 -8 -12 -1 -11 5 -29 8 -41 7 -12 -1 -20 2 -17 7 3
4 1 8 -5 8 -5 0 -17 3 -27 7 -11 4 -15 3 -10 -5 4 -7 -1 -9 -16 -6 -13 3 -52
7 -88 9 -36 3 -85 7 -110 11 -25 3 -63 7 -85 8 -22 2 -58 7 -80 11 -69 13 -79
15 -125 21 -58 7 -89 28 -102 66 l-11 31 -13 -25 c-12 -22 -22 -26 -85 -32
l-72 -7 84 -50 c46 -28 95 -61 109 -75 26 -26 28 -27 -162 86 -31 18 -55 37
-52 42 3 4 -55 8 -128 9 -73 0 -144 3 -158 5 -25 5 -25 5 -5 -14 11 -11 101
-69 200 -130 300 -185 346 -215 338 -223 -11 -10 -153 -29 -216 -29 -61 1
-146 19 -237 50 -99 34 -260 101 -266 111 -5 9 58 0 66 -10 3 -3 10 -7 17 -8
22 -4 7 27 -28 58 -31 28 -28 31 18 12 12 -5 14 -3 8 7 -5 9 -4 11 4 6 6 -4 8
-12 5 -18 -4 -6 2 -8 17 -3 17 4 20 3 10 -3 -11 -8 -7 -14 18 -27 18 -9 35
-14 39 -11 3 3 0 6 -6 6 -7 0 -12 8 -12 18 0 10 3 13 8 6 4 -6 16 -14 26 -18
43 -16 -17 34 -98 81 -45 26 -83 50 -86 53 -10 10 -45 31 -65 37 -23 8 99 42
153 42 17 1 32 5 32 10 0 5 -9 7 -20 4 -11 -3 -20 -1 -20 4 0 5 -16 8 -35 7
-20 -2 -33 1 -30 6 3 5 -4 7 -15 5 -12 -2 -20 1 -20 10 0 8 -5 17 -12 21 -7 5
-8 3 -3 -7 5 -8 -1 -6 -13 5 -19 16 -22 17 -28 3 -3 -10 -15 -14 -32 -12 -15
2 -31 4 -35 4 -5 1 -5 7 -1 14 5 7 0 6 -11 -3 -17 -14 -18 -13 -12 2 5 15 4
16 -13 5 -16 -9 -24 -9 -40 1 -11 6 -26 12 -34 12 -10 0 -13 7 -11 21 4 17 2
19 -11 9 -11 -10 -18 -9 -34 5 -11 10 -17 23 -13 29 3 6 3 8 -2 4 -4 -4 -15
-2 -23 5 -11 8 -14 8 -9 0 4 -6 4 -13 0 -16 -5 -2 -2 -2 5 0 7 1 10 -2 7 -7
-3 -6 1 -10 9 -10 9 0 16 -4 16 -9 0 -5 22 -25 48 -44 35 -25 56 -33 74 -30
14 3 39 -2 55 -11 16 -8 54 -18 84 -22 50 -7 52 -8 27 -16 -32 -11 -120 5
-155 27 -12 8 -23 10 -25 5 -3 -10 -86 44 -119 77 -9 10 -36 29 -58 42 -22 14
-40 26 -38 27 1 1 78 4 170 6 143 2 165 5 150 16 -16 12 -16 13 7 9 26 -5 79
0 315 28 77 9 152 18 166 20 15 1 43 -3 63 -10 20 -7 73 -13 117 -13 44 0 84
-3 87 -7 3 -3 12 5 19 17 13 22 14 21 9 -12 -3 -19 -8 -57 -12 -84 l-7 -48 39
6 c22 3 208 24 414 47 206 22 420 47 475 54 55 8 120 14 145 14 l45 -2 -35 -7
-35 -7 30 -2 c17 0 36 4 43 11 7 7 12 8 12 2 0 -5 5 -2 10 6 6 10 10 11 10 3
0 -7 9 -13 21 -13 12 0 18 4 13 11 -5 8 3 10 28 5 32 -6 430 41 1333 159 498
64 578 77 596 92 19 16 33 17 23 2 -8 -13 -10 -13 399 47 164 24 313 44 330
45 70 4 692 103 1082 174 466 84 702 133 796 166 48 16 104 29 125 29 22 0 75
7 119 16 l80 16 112 -46 c61 -25 167 -71 235 -102 67 -30 134 -60 148 -65 26
-10 118 19 440 135 134 48 147 63 17 20 l-79 -26 -131 62 c-159 75 -392 173
-582 245 -160 60 -375 129 -382 122 -2 -3 25 -45 61 -93 68 -91 75 -106 54
-101 -7 1 -12 -4 -10 -11 1 -8 -2 -11 -8 -7 -6 3 -8 11 -5 16 4 5 -8 9 -24 9
-17 0 -31 -4 -31 -9 0 -5 10 -7 23 -5 20 4 20 4 2 -5 -11 -5 -25 -5 -31 0 -6
5 -16 3 -24 -4 -10 -10 -12 -8 -7 8 6 17 5 18 -5 4 -9 -13 -18 -15 -46 -7 -18
5 -40 7 -48 4 -8 -3 -14 -1 -14 3 0 11 -19 9 -39 -3 -10 -7 -12 -6 -6 4 6 10
3 12 -13 8 -12 -4 -20 -2 -16 3 3 5 1 9 -5 9 -5 0 -12 -4 -16 -10 -3 -5 -12
-7 -20 -3 -9 3 -22 0 -30 -7 -9 -8 -15 -8 -15 -2 0 12 -18 11 -39 -2 -10 -6
-12 -5 -7 2 5 8 0 12 -13 12 -12 0 -21 -4 -21 -10 0 -5 -9 -10 -21 -10 -13 0
-18 4 -13 13 6 10 4 10 -7 0 -7 -7 -17 -13 -22 -13 -4 0 -5 6 -1 13 5 8 2 8
-9 -2 -9 -7 -17 -10 -17 -5 0 5 -5 2 -10 -6 -5 -8 -10 -10 -10 -4 0 7 -17 10
-45 9 -27 -2 -45 1 -45 8 0 5 -8 3 -19 -7 -16 -15 -19 -15 -31 -1 -10 12 -16
13 -28 3 -13 -11 -15 -10 -8 2 4 8 0 6 -8 -4 -12 -15 -16 -16 -16 -5 0 11 -2
11 -9 1 -6 -11 -10 -10 -15 4 -6 15 -9 15 -30 -5 -21 -20 -27 -21 -45 -9 -17
10 -25 10 -41 1 -13 -9 -21 -9 -25 -2 -5 6 -12 6 -23 -3 -13 -11 -14 -11 -7 1
6 11 5 12 -6 5 -15 -9 -46 -14 -92 -14 -19 0 -26 -3 -21 -11 4 -7 3 -9 -3 -6
-13 8 -51 -4 -248 -76 -82 -30 -233 -85 -335 -121 -102 -37 -245 -90 -318
-118 -73 -27 -136 -48 -139 -44 -7 7 9 13 203 81 490 173 1577 614 1596 648
11 21 -2 21 -140 7 -374 -39 -779 -122 -994 -204 -38 -14 -68 -22 -68 -18 0 4
-7 -2 -15 -12 -19 -26 -19 -21 5 57 l20 65 44 -5 c24 -3 67 1 97 10 153 43
590 107 969 142 212 19 203 17 320 67 126 55 140 68 75 68 -28 0 -140 9 -250
20 -463 45 -723 62 -1347 86 -93 3 -166 10 -163 14 3 5 20 7 38 5 17 -3 228
-12 467 -21 l436 -16 164 57 c91 32 169 61 173 65 4 4 -5 7 -20 8 -15 0 -107
8 -203 16 -96 9 -218 17 -271 19 -87 2 -96 4 -88 19 12 23 11 28 -6 28 -8 0
-12 -6 -9 -14 8 -22 -20 -26 -128 -16 -57 5 -162 9 -235 10 -145 0 -163 3
-163 31 0 10 -5 19 -11 19 -7 0 -9 -10 -5 -26 6 -23 4 -25 -21 -22 -21 2 -32
12 -44 38 l-17 35 -90 3 c-132 4 -180 -25 -241 -146 l-22 -43 -33 28 c-31 28
-93 60 -100 52 -1 -2 -9 -35 -17 -73 l-14 -70 -47 -12 c-58 -14 -59 -11 -22
81 16 41 23 72 18 83 -4 9 -6 20 -6 25 4 15 -64 6 -144 -18 -95 -29 -139 -65
-150 -122 -10 -53 1 -156 30 -269 l26 -102 -65 -135 c-36 -75 -65 -140 -65
-146 0 -5 -42 -19 -92 -32 -51 -12 -120 -31 -153 -41 -37 -11 -298 -44 -690
-88 -613 -68 -794 -88 -1535 -170 -195 -22 -372 -42 -393 -44 -29 -3 -40 0
-44 12 -22 70 -49 124 -74 150 -26 26 -35 30 -67 25 -20 -3 -45 -10 -55 -15
-15 -8 -17 -6 -11 19 11 46 22 71 35 79 8 5 10 3 4 -7 -7 -11 -6 -12 6 -2 13
11 19 13 37 13 4 0 0 4 -7 9 -12 8 -9 11 13 17 25 6 27 10 24 47 l-3 41 80 29
c44 16 157 51 252 78 204 58 218 64 261 103 35 33 42 71 14 80 -11 4 -31 34
-47 71 -15 35 -37 72 -49 82 -16 14 -18 14 -8 2 12 -16 4 -16 -94 -11 -102 5
-106 4 -100 -14 5 -18 2 -19 -37 -16 -23 2 -49 6 -57 9 -29 11 -77 1 -285 -64
-255 -79 -609 -201 -1098 -379 -550 -200 -711 -266 -1460 -596 -225 -99 -411
-178 -413 -175 -3 3 4 8 15 12 27 8 30 62 4 59 -26 -3 -12 7 45 32 834 374
1727 722 2662 1037 137 46 186 66 188 79 2 10 -19 50 -47 90 -28 39 -51 79
-51 88 0 14 96 56 221 96 11 4 25 -8 43 -38 l27 -43 -6 38 c-7 41 -7 40 80 40
25 -1 44 5 52 16 12 14 12 14 6 -4 -3 -11 -3 -17 1 -13 5 4 19 3 32 -2 16 -6
24 -6 24 1 0 6 5 7 10 4 6 -3 10 -1 10 6 0 7 6 5 13 -6 11 -14 16 -15 22 -5 5
9 4 11 -3 6 -7 -4 -12 -2 -12 4 0 7 7 9 16 6 9 -3 20 -6 25 -6 6 0 7 -6 3 -12
-6 -10 -5 -10 7 -1 18 14 33 5 37 -22 5 -31 59 -137 84 -165 13 -14 19 -21 15
-14 -10 15 -2 20 70 45 78 26 136 62 153 94 12 23 12 29 -2 53 -37 62 -115 94
-280 113 -80 9 -111 17 -141 37 -58 39 -188 42 -312 8z m3963 -21 c19 -41 15
-46 -30 -43 -36 3 -43 7 -55 36 l-13 32 43 0 c37 0 46 -4 55 -25z m-4134 -304
c48 -70 55 -86 44 -97 -7 -7 -166 -65 -353 -128 -813 -273 -1182 -413 -2070
-787 -446 -187 -621 -259 -631 -259 -3 0 -4 6 -1 14 3 7 -1 23 -9 34 -13 19
-11 22 19 40 47 30 546 244 1187 510 80 33 171 72 202 86 32 15 61 26 64 25 4
0 10 4 13 10 7 11 435 220 666 326 225 103 778 316 806 311 4 -1 32 -39 63
-85z m3796 64 l24 -26 -17 -62 c-9 -34 -41 -157 -71 -273 -30 -116 -66 -249
-79 -295 -14 -46 -40 -136 -58 -198 -43 -150 -55 -163 -142 -165 -49 -1 -67 3
-67 12 0 10 -5 10 -20 2 -11 -6 -20 -7 -20 -2 0 35 44 156 117 322 85 190 185
429 244 580 23 59 27 80 19 98 -14 32 -14 32 18 32 18 0 38 -10 52 -25z m1785
-135 c15 -7 9 -9 -25 -9 -25 0 -52 4 -60 9 -19 13 56 13 85 0z m-1311 -77
c-16 -26 -36 -61 -45 -78 -13 -26 -22 -31 -69 -38 -134 -21 -157 -28 -169 -50
-11 -21 -11 -21 -5 3 23 90 25 92 167 106 72 7 80 13 120 84 10 18 20 30 24
27 3 -4 -7 -28 -23 -54z m121 40 c-4 -10 -20 -63 -37 -118 -27 -92 -51 -149
-33 -80 4 17 8 40 8 53 1 12 4 22 8 22 4 0 6 8 5 18 -2 9 3 26 10 37 8 11 14
24 14 30 -1 5 -7 -1 -16 -15 l-15 -25 7 25 c4 14 7 35 6 48 -1 17 3 22 24 22
21 0 25 -4 19 -17z m-3890 -58 c37 -13 38 -14 12 -15 -16 0 -37 -5 -48 -11
-11 -5 -28 -8 -37 -6 -14 4 -13 6 6 12 12 4 22 14 22 21 0 17 -4 17 45 -1z
m-108 -41 c-3 -3 -12 -4 -19 -1 -8 3 -5 6 6 6 11 1 17 -2 13 -5z m3015 -189
l27 -85 -52 -106 c-29 -59 -54 -106 -57 -104 -3 2 -15 -2 -27 -9 -15 -8 -23
-8 -23 -1 0 6 -11 3 -25 -6 -22 -14 -25 -23 -25 -74 0 -32 9 -111 20 -175 11
-64 20 -119 20 -121 0 -2 -9 -4 -20 -4 -19 0 -20 7 -20 98 -1 53 -7 126 -15
162 -8 36 -14 95 -15 133 0 64 1 67 23 67 21 0 31 18 87 155 35 85 66 155 69
155 3 0 18 -39 33 -85z m873 -205 c-8 -13 -27 -13 -62 1 l-28 12 40 12 c33 10
41 10 48 -1 4 -8 5 -19 2 -24z m-1321 -64 c-23 -7 -75 -16 -115 -20 -41 -4
-135 -16 -209 -26 -74 -10 -169 -22 -210 -26 -41 -3 -78 -8 -81 -10 -4 -2 -60
-11 -125 -19 -66 -8 -139 -18 -164 -21 -165 -21 -258 -29 -254 -22 3 4 15 8
28 8 19 0 256 31 521 69 39 5 126 17 195 26 69 9 184 24 255 34 72 10 146 19
165 19 l35 1 -41 -13z m-381 -3 c-7 -2 -21 -2 -30 0 -10 3 -4 5 12 5 17 0 24
-2 18 -5z m-2919 -74 c27 -16 55 -37 63 -44 8 -8 53 -43 100 -77 l86 -63 -34
-6 c-72 -14 -209 -20 -209 -9 0 7 -34 8 -106 4 -70 -4 -104 -2 -100 4 3 6 -7
16 -24 24 -16 7 -30 16 -30 19 0 8 119 61 190 84 30 10 50 20 44 22 -9 3 -160
-47 -216 -71 -12 -6 -21 0 -33 24 -9 18 -15 33 -13 35 7 5 214 84 224 84 5 1
32 -13 58 -30z m406 -94 c0 -8 -25 -19 -69 -29 -81 -19 -91 -19 -91 -7 0 5 26
17 58 25 31 9 64 20 72 25 18 10 30 5 30 -14z m1657 9 c-3 -3 -12 -4 -19 -1
-8 3 -5 6 6 6 11 1 17 -2 13 -5z m-80 -10 c-3 -3 -12 -4 -19 -1 -8 3 -5 6 6 6
11 1 17 -2 13 -5z m1428 -128 c18 -13 17 -16 -15 -95 -18 -46 -38 -84 -44 -86
-30 -8 -209 -35 -270 -41 l-69 -7 20 29 c38 52 176 196 197 204 35 14 160 12
181 -4z m-3326 -71 c47 -6 52 -9 38 -20 -25 -18 -21 -28 26 -50 37 -17 45 -28
64 -80 26 -71 29 -99 9 -72 -10 13 -19 15 -37 9 -13 -5 -51 -12 -84 -16 -33
-4 -86 -10 -119 -15 -32 -4 -74 -8 -92 -7 -19 1 -34 -2 -34 -7 0 -4 -11 -5
-24 -1 -33 8 -132 -23 -197 -62 -69 -42 -114 -51 -294 -59 -206 -9 -227 -12
-220 -36 5 -15 3 -18 -12 -12 -10 3 -22 10 -28 14 -5 4 -23 9 -40 11 -47 5
-43 32 11 83 119 109 350 209 623 270 116 26 182 35 227 33 50 -2 68 1 81 15
10 9 24 15 33 13 8 -3 40 -8 69 -11z m751 -51 c0 -5 -35 -19 -72 -28 -21 -5
-28 -3 -28 8 0 8 16 18 38 23 34 9 62 7 62 -3z m-331 -108 c-2 -2 -22 -6 -44
-9 -28 -5 -34 -4 -20 3 19 8 73 14 64 6z m-196 -37 c-8 -8 -16 -8 -30 0 -16 9
-14 10 12 11 21 0 26 -3 18 -11z m-120 -106 c-7 -2 -21 -2 -30 0 -10 3 -4 5
12 5 17 0 24 -2 18 -5z m-60 -10 c-7 -2 -19 -2 -25 0 -7 3 -2 5 12 5 14 0 19
-2 13 -5z m-66 -9 c-3 -3 -12 -4 -19 -1 -8 3 -5 6 6 6 11 1 17 -2 13 -5z m473
-24 c0 -15 -7 -20 -27 -20 -25 0 -26 0 -8 20 10 11 22 20 27 20 4 0 8 -9 8
-20z m-1650 -102 c10 -6 1 -7 -25 -3 -22 4 -47 11 -55 16 -10 6 -1 7 25 3 22
-4 47 -11 55 -16z m12660 -3 c0 -2 -15 -12 -32 -20 l-33 -16 25 20 c24 20 40
26 40 16z m-2595 -105 c-8 -13 -75 -13 -95 0 -11 7 2 10 43 10 36 0 56 -4 52
-10z m-150 -7 c-304 -24 -569 -102 -797 -233 -144 -82 -257 -168 -393 -299
-71 -69 -112 -106 -90 -81 189 209 405 367 651 474 195 86 443 145 599 143 39
0 52 -2 30 -4z m262 0 c-20 -2 -52 -2 -70 0 -17 2 0 4 38 4 39 0 53 -2 32 -4z
m101 -10 c-10 -2 -26 -2 -35 0 -10 3 -2 5 17 5 19 0 27 -2 18 -5z m-9788 -13
c0 -5 -17 -9 -37 -9 -38 1 -38 1 -8 9 43 11 45 11 45 0z m9853 3 c-7 -2 -21
-2 -30 0 -10 3 -4 5 12 5 17 0 24 -2 18 -5z m-9963 -12 c0 -19 -303 -41 -314
-22 -5 8 17 11 76 12 69 1 200 11 231 17 4 1 7 -2 7 -7z m10013 2 c-7 -2 -19
-2 -25 0 -7 3 -2 5 12 5 14 0 19 -2 13 -5z m111 -24 c249 -73 489 -202 663
-357 26 -24 32 -32 13 -17 -19 14 -66 50 -105 79 -164 123 -351 217 -558 281
-62 19 -106 34 -98 35 8 0 46 -9 85 -21z m-10024 -10 c-25 -4 -67 -7 -95 -7
l-50 1 60 7 c33 4 76 7 95 7 31 0 30 0 -10 -8z m-310 -23 c8 -2 -18 -4 -58 -5
l-72 -1 26 -29 c14 -16 44 -37 66 -46 21 -8 50 -25 62 -38 30 -29 62 -50 71
-48 3 1 14 -6 23 -16 10 -10 31 -25 47 -33 22 -12 31 -24 33 -48 3 -26 0 -31
-12 -26 -12 5 -15 2 -10 -10 4 -9 3 -16 -2 -15 -21 4 -26 -2 -14 -16 7 -8 10
-15 6 -15 -4 0 -66 23 -139 51 -176 67 -229 87 -249 93 -17 5 -17 9 3 58 11
29 34 76 49 104 l29 50 63 -3 c35 -2 70 -6 78 -7z m138 7 c-15 -2 -42 -2 -60
0 -18 2 -6 4 27 4 33 0 48 -2 33 -4z m5430 -173 c-12 -16 -29 -32 -38 -35 -19
-6 -471 -78 -639 -101 -121 -17 -124 -17 -138 2 -19 26 -12 48 15 52 13 2 26
10 29 18 3 8 11 14 19 14 8 0 11 -6 7 -16 -5 -14 -1 -15 28 -9 19 4 35 11 37
15 1 4 13 6 25 4 12 -2 153 16 312 40 160 24 307 44 328 45 l38 1 -23 -30z
m-6501 -12 c-3 -8 -6 -5 -6 6 -1 11 2 17 5 13 3 -3 4 -12 1 -19z m6491 -54
c-16 -15 -170 -42 -538 -94 -324 -45 -453 -60 -460 -54 -10 10 25 22 84 28
148 16 876 123 883 130 1 1 11 2 23 2 16 0 17 -3 8 -12z m4476 -21 c4 -5 17
-8 29 -9 46 -2 112 -17 134 -31 12 -8 31 -12 41 -9 11 4 24 0 32 -9 7 -8 21
-13 30 -10 11 3 20 -1 24 -10 3 -8 13 -15 21 -15 9 0 23 -7 32 -15 12 -12 18
-13 29 -4 11 9 14 8 14 -3 0 -18 64 -50 85 -42 9 4 15 0 15 -9 0 -8 32 -34 73
-56 113 -64 118 -68 222 -168 36 -35 65 -69 65 -75 0 -7 3 -24 7 -38 4 -18
-13 -5 -65 51 -39 42 -106 103 -149 135 -43 32 -93 71 -111 86 -107 91 -385
184 -606 204 -64 5 -76 16 -31 27 33 8 101 8 109 0z m-5301 -36 c5 -16 7 -30
6 -32 -2 -2 -35 -5 -73 -7 -56 -2 -70 0 -79 14 -16 24 2 40 55 49 66 11 80 7
91 -24z m-6765 -14 c-43 -2 -113 -2 -155 0 -43 1 -8 3 77 3 85 0 120 -2 78 -3z
m-260 -10 c-10 -2 -28 -2 -40 0 -13 2 -5 4 17 4 22 1 32 -1 23 -4z m405 0
c-13 -2 -33 -2 -45 0 -13 2 -3 4 22 4 25 0 35 -2 23 -4z m-490 -10 c-7 -2 -21
-2 -30 0 -10 3 -4 5 12 5 17 0 24 -2 18 -5z m622 -8 c66 -17 37 -17 -45 0 -36
7 -51 13 -35 13 17 0 53 -6 80 -13z m-710 -5 c-16 -4 -39 -8 -50 -8 -16 0 -15
2 5 8 14 4 36 8 50 8 22 0 22 -1 -5 -8z m12283 -7 c-15 -2 -42 -2 -60 0 -18 2
-6 4 27 4 33 0 48 -2 33 -4z m135 0 c-13 -2 -33 -2 -45 0 -13 2 -3 4 22 4 25
0 35 -2 23 -4z m-12496 -9 c-3 -3 -12 -4 -19 -1 -8 3 -5 6 6 6 11 1 17 -2 13
-5z m870 0 c-3 -3 -12 -4 -19 -1 -8 3 -5 6 6 6 11 1 17 -2 13 -5z m11356 -1
c-7 -2 -19 -2 -25 0 -7 3 -2 5 12 5 14 0 19 -2 13 -5z m360 0 c-7 -2 -19 -2
-25 0 -7 3 -2 5 12 5 14 0 19 -2 13 -5z m-12626 -9 c-3 -3 -12 -4 -19 -1 -8 3
-5 6 6 6 11 1 17 -2 13 -5z m950 0 c-3 -3 -12 -4 -19 -1 -8 3 -5 6 6 6 11 1
17 -2 13 -5z m11740 0 c-3 -3 -12 -4 -19 -1 -8 3 -5 6 6 6 11 1 17 -2 13 -5z
m-12842 -48 c-66 -23 -125 -45 -130 -48 -6 -3 -48 7 -95 23 -47 16 -79 29 -71
29 8 0 45 -10 82 -22 l68 -22 118 42 c65 22 125 41 133 41 8 0 -39 -19 -105
-43z m5038 37 c-7 -2 -21 -2 -30 0 -10 3 -4 5 12 5 17 0 24 -2 18 -5z m7844 1
c-3 -3 -12 -4 -19 -1 -8 3 -5 6 6 6 11 1 17 -2 13 -5z m-11603 -49 c256 -104
507 -296 665 -507 24 -32 47 -55 52 -52 5 3 6 -2 3 -10 -3 -9 -1 -16 5 -16 6
0 11 7 11 17 0 13 4 12 19 -6 11 -13 24 -20 30 -17 5 4 13 1 18 -6 4 -7 15
-13 23 -13 8 0 14 -6 12 -14 -2 -9 3 -11 13 -7 10 4 19 -3 27 -19 6 -14 15
-25 20 -25 5 0 24 -16 44 -35 19 -19 42 -35 50 -35 9 0 14 -6 11 -13 -3 -8 1
-14 9 -14 7 0 11 4 9 8 -3 4 1 9 9 12 21 8 70 1 74 -12 8 -24 18 -9 21 31 4
70 8 54 15 -59 38 -607 71 -922 122 -1176 9 -43 13 -82 9 -85 -5 -5 -286 -32
-292 -28 -1 1 3 19 8 41 17 66 23 428 10 561 -74 739 -448 1268 -1057 1494
-44 16 -72 29 -64 29 8 1 64 -19 124 -44z m3689 38 c-7 -2 -21 -2 -30 0 -10 3
-4 5 12 5 17 0 24 -2 18 -5z m-66 -9 c-3 -3 -12 -4 -19 -1 -8 3 -5 6 6 6 11 1
17 -2 13 -5z m8060 0 c-3 -3 -12 -4 -19 -1 -8 3 -5 6 6 6 11 1 17 -2 13 -5z
m956 -109 c12 -17 0 -9 -29 20 -65 67 -89 101 -35 50 23 -22 52 -53 64 -70z
m-1718 57 c-6 -7 -35 18 -35 31 0 5 9 2 20 -8 11 -10 18 -20 15 -23z m571 -7
c92 -17 204 -53 204 -65 0 -16 -51 -16 -118 1 -155 39 -307 48 -449 27 -109
-16 -138 -16 -138 1 0 44 335 68 501 36z m-666 -35 c0 -32 -4 -40 -18 -40 -19
0 -137 -66 -190 -106 l-32 -25 -30 21 c-17 12 -30 25 -30 29 0 23 238 161 278
161 19 0 22 -5 22 -40z m1070 10 c33 -17 60 -34 60 -39 0 -5 -13 -14 -30 -21
-16 -7 -30 -15 -30 -19 0 -3 -15 -7 -33 -8 -30 -2 -28 0 23 26 l54 29 -59 30
c-33 17 -56 31 -52 32 4 0 34 -14 67 -30z m-1056 -79 c4 -5 -22 -23 -56 -41
-35 -17 -91 -49 -126 -72 -34 -22 -65 -38 -69 -35 -22 23 161 156 214 157 17
0 34 -4 37 -9z m1341 -123 c83 -78 98 -98 73 -98 -7 0 -25 -7 -41 -15 -27 -14
-29 -13 -70 28 -58 58 -132 117 -146 117 -16 0 -14 26 4 61 l16 30 39 -22 c21
-12 78 -58 125 -101z m575 35 c34 -49 82 -123 107 -166 l45 -78 269 138 c147
75 271 135 274 132 2 -3 -4 -24 -15 -46 -18 -39 -32 -50 -135 -110 -104 -60
-126 -68 -135 -53 -8 12 -10 11 -10 -5 0 -14 -21 -32 -67 -59 -37 -22 -73 -39
-80 -39 -7 0 -13 -6 -13 -13 0 -7 -9 -16 -20 -19 -11 -4 -17 -11 -14 -17 4 -6
1 -14 -6 -18 -10 -6 -20 6 -37 42 -13 27 -23 55 -23 61 0 15 -104 181 -166
265 -30 39 -50 72 -46 72 5 0 37 -39 72 -87z m-2870 64 c0 -2 -10 -12 -22 -23
l-23 -19 19 23 c18 21 26 27 26 19z m-2729 -34 c-12 -20 -14 -14 -5 12 4 9 9
14 11 11 3 -2 0 -13 -6 -23z m5000 -10 c10 -12 5 -11 -18 6 -18 12 -33 24 -33
27 0 9 37 -15 51 -33z m-5018 -28 c-3 -9 -8 -14 -10 -11 -3 3 -2 9 2 15 9 16
15 13 8 -4z m4863 -26 c12 -12 20 -27 18 -34 -5 -13 25 -29 42 -23 5 2 30 -20
55 -47 44 -47 45 -51 29 -67 -15 -17 -18 -16 -50 17 -25 26 -37 32 -46 24 -18
-15 -37 -1 -31 23 6 20 -6 36 -57 75 -24 19 -26 25 -16 38 17 20 30 19 56 -6z
m-1536 -9 c0 -12 -7 -20 -17 -20 -19 -1 -122 -122 -186 -218 -54 -82 -113
-210 -157 -340 -21 -62 -42 -112 -46 -111 -22 5 27 173 86 296 59 125 148 256
235 346 68 70 85 80 85 47z m-11059 -1 c57 -5 105 -12 107 -14 3 -2 1 -17 -3
-32 l-8 -28 -6 25 c-6 22 -14 26 -71 33 -142 18 -356 -5 -518 -55 -129 -39
-380 -177 -365 -200 3 -5 15 -14 27 -19 21 -9 21 -9 -1 -4 -13 3 -31 8 -41 11
-12 3 -30 -4 -50 -21 l-32 -27 20 -28 c21 -29 26 -50 13 -50 -20 0 -143 -137
-143 -159 0 -7 -9 -9 -25 -5 -14 3 -33 7 -42 8 -22 1 -63 -60 -63 -94 0 -15
-9 -49 -21 -74 -38 -88 -70 -260 -76 -419 -3 -82 -9 -145 -14 -140 -4 4 -14
62 -22 128 l-14 120 -9 -75 c-4 -41 -10 -64 -12 -52 -6 38 26 206 58 306 58
181 155 340 294 484 213 221 477 350 779 382 107 11 126 11 238 -1z m7628
-191 c-131 -273 -302 -562 -432 -733 -93 -122 -303 -369 -342 -404 -69 -60
-102 -67 -495 -101 -129 -11 -408 -36 -620 -55 -578 -52 -924 -82 -1460 -125
-267 -22 -595 -49 -730 -60 -135 -11 -443 -33 -685 -50 -242 -17 -519 -37
-615 -45 -96 -7 -216 -17 -266 -20 l-92 -7 -15 69 c-40 176 -101 756 -113
1064 l-7 174 67 1 c36 0 66 -3 66 -8 0 -4 -8 -8 -17 -8 -15 0 -15 -2 -4 -9 10
-7 18 -5 25 4 19 24 59 34 72 18 9 -13 12 -13 26 1 19 18 33 21 22 5 -4 -8 0
-8 15 0 16 9 21 9 22 -1 0 -7 4 -4 9 7 5 11 9 15 9 8 1 -6 10 -9 24 -6 17 4
19 3 7 -6 -12 -8 -11 -10 7 -8 12 0 19 5 17 9 -3 4 4 8 15 8 11 0 23 -5 26
-10 4 -6 19 -9 33 -8 15 1 33 -1 40 -6 7 -4 12 -1 12 8 0 9 5 16 11 16 6 0 7
-6 2 -12 -4 -8 4 -6 18 4 17 11 31 13 40 7 18 -11 32 -12 25 0 -3 4 6 7 20 5
20 -2 23 0 14 11 -6 8 -19 11 -28 8 -9 -3 -14 -3 -11 1 14 15 48 14 55 -2 4
-9 7 -20 6 -24 -1 -3 5 -9 13 -12 13 -5 13 -2 0 24 -16 30 -16 30 14 30 16 0
32 -6 34 -12 3 -8 6 -6 6 4 1 12 6 15 18 11 12 -5 14 -3 8 8 -5 8 2 5 15 -6
13 -11 20 -14 16 -7 -4 7 -1 12 8 12 9 0 16 5 16 11 0 5 5 7 10 4 6 -3 10 -11
10 -16 0 -6 -4 -8 -9 -4 -5 3 -12 1 -15 -4 -4 -5 2 -8 11 -6 10 1 23 -1 29 -6
10 -8 47 24 38 33 -2 3 2 5 10 5 15 0 16 -21 1 -34 -4 -5 -5 -1 0 7 5 8 6 13
2 10 -6 -5 -9 -22 -4 -17 2 1 12 -5 23 -13 14 -10 16 -10 7 0 -10 11 -9 16 5
27 9 8 11 12 5 8 -7 -3 -13 -1 -13 4 0 13 17 14 24 2 4 -5 14 -8 24 -7 9 2 20
-2 24 -8 5 -8 8 -7 8 2 0 7 5 10 12 6 7 -4 8 -3 4 5 -4 6 -11 9 -15 7 -4 -3
-8 1 -8 9 0 11 5 10 24 -2 12 -8 23 -21 23 -28 0 -19 27 -38 35 -25 4 6 1 9
-5 8 -7 -2 -18 15 -26 36 -8 22 -11 36 -8 33 4 -4 14 -1 23 6 14 11 14 10 2
-6 -8 -9 -11 -21 -7 -24 4 -4 11 -1 16 7 8 13 10 12 10 -2 0 -9 4 -19 9 -22 5
-4 7 4 4 16 -4 19 -3 20 6 8 9 -12 11 -13 11 -1 0 15 11 10 13 -6 0 -4 13 -30
29 -56 15 -26 28 -52 28 -56 0 -5 12 -17 28 -26 15 -10 21 -12 15 -4 -20 21
-15 34 6 15 17 -16 20 -16 35 -1 14 14 16 14 16 2 0 -9 -6 -17 -12 -20 -10 -4
-10 -7 0 -18 7 -8 13 -9 12 -4 -5 22 1 27 18 14 15 -13 16 -12 4 3 -9 11 -11
22 -4 34 8 15 9 15 15 0 5 -11 3 -15 -5 -10 -7 4 -8 3 -4 -5 9 -14 26 -5 26
15 0 11 6 13 21 9 13 -4 19 -3 16 2 -4 5 0 10 8 10 8 0 12 -4 9 -8 -2 -4 0
-11 6 -14 6 -4 10 -3 9 2 -5 29 3 35 41 31 32 -3 39 -1 35 11 -4 11 0 9 15 -4
19 -18 20 -18 20 0 0 18 1 18 16 -1 14 -17 15 -17 10 -1 -4 12 -2 17 6 14 7
-2 21 0 30 5 13 6 15 14 9 31 -13 33 -24 138 -11 110 11 -28 20 -30 13 -4 -3
10 1 22 8 26 7 5 10 4 6 -2 -4 -6 0 -16 7 -22 9 -8 16 -8 20 -2 4 6 14 8 24 5
14 -5 15 -4 2 5 -13 9 -13 11 3 11 9 0 17 -6 18 -12 0 -7 4 -4 9 7 l9 20 1
-20 c2 -17 3 -16 9 4 4 14 12 26 19 27 7 1 8 0 2 -3 -5 -2 -10 -12 -10 -20 0
-14 2 -14 19 1 16 14 20 15 30 2 13 -15 45 -11 35 5 -3 5 1 9 10 9 8 0 17 6
19 13 3 7 6 6 6 -5 1 -9 5 -20 11 -23 5 -3 7 0 4 9 -6 15 11 17 33 3 6 -4 15
-2 19 4 4 8 9 7 16 -2 8 -11 9 -10 4 4 -3 9 -1 17 4 17 6 0 10 -6 10 -12 0
-10 2 -10 9 0 6 11 10 10 15 -4 5 -13 9 -15 18 -6 15 15 31 15 22 0 -4 -6 -3
-8 4 -5 8 6 10 42 2 42 -1 0 -3 8 -5 18 -3 14 0 16 9 8 7 -6 16 -8 19 -4 4 3
7 1 7 -5 0 -5 -5 -12 -10 -14 -6 -2 -4 -11 5 -23 9 -11 14 -15 12 -10 -3 6 1
24 9 40 10 21 12 23 8 6 -4 -15 -2 -21 5 -17 6 4 20 2 31 -4 16 -9 25 -8 36 0
15 13 9 34 -7 24 -5 -3 -7 -10 -4 -15 4 -5 1 -9 -4 -9 -16 0 -13 16 4 30 13
11 18 10 31 -8 13 -19 59 -29 48 -10 -3 5 -10 5 -16 2 -7 -4 -8 -2 -4 4 5 9
13 9 26 2 14 -8 19 -6 22 7 3 15 4 15 21 -1 9 -10 17 -14 17 -10 0 3 6 2 13
-3 13 -11 45 -9 55 3 4 4 -1 4 -11 1 -11 -4 -16 -3 -12 3 9 14 26 12 39 -5 8
-11 15 -12 26 -4 13 9 12 10 -2 5 -11 -3 -18 0 -18 7 0 8 15 12 43 11 23 0 45
5 50 10 4 7 10 6 17 -4 8 -13 10 -13 10 -1 0 11 3 12 11 4 14 -14 69 3 70 20
0 7 4 2 9 -10 7 -16 14 -21 27 -16 10 4 20 10 23 14 3 5 20 9 38 11 24 2 31 6
27 17 -3 9 -3 12 1 8 4 -4 13 -2 20 4 8 7 14 6 20 -2 4 -8 3 -9 -4 -5 -7 4
-12 1 -12 -9 0 -9 5 -13 11 -10 6 4 17 -1 25 -11 14 -18 14 -18 7 0 -4 13 -3
17 5 12 8 -5 10 -2 6 8 -7 19 16 21 35 4 11 -10 14 -10 18 -1 3 9 11 8 29 -3
22 -15 24 -15 24 2 0 11 3 15 8 9 9 -13 27 -13 39 -1 4 5 3 6 -4 2 -6 -3 -14
-2 -18 4 -4 6 6 8 27 6 18 -2 32 -9 31 -14 -2 -7 11 -5 31 3 33 14 34 14 29
-8 -4 -18 -3 -19 6 -7 16 23 14 50 -4 44 -8 -4 -15 -2 -15 3 0 18 33 10 38 -9
5 -21 22 -24 22 -4 0 8 5 18 12 22 7 5 9 1 6 -13 -3 -12 0 -20 8 -20 8 0 14
11 14 26 0 24 1 24 14 5 11 -14 12 -23 3 -34 -9 -12 -8 -13 2 -3 7 6 19 9 26
7 7 -3 15 2 19 12 6 15 4 15 -11 3 -15 -12 -16 -12 -10 4 4 11 3 16 -3 12 -6
-3 -10 1 -10 9 0 10 8 15 22 13 24 -2 57 -28 51 -39 -2 -3 5 -5 14 -4 9 2 19
8 21 14 2 8 -3 10 -14 5 -11 -4 -15 -2 -12 7 2 7 16 14 31 16 26 3 34 -9 28
-40 -1 -5 5 -4 13 4 18 14 22 25 6 15 -5 -3 -10 -2 -10 3 0 6 6 12 14 15 18 7
56 -3 56 -14 0 -5 7 -6 15 -3 8 4 15 12 15 19 0 8 5 17 11 21 8 4 9 0 4 -15
-8 -26 10 -28 24 -3 9 15 10 15 11 1 0 -20 27 -33 27 -13 0 7 -4 11 -9 8 -4
-3 -8 -1 -8 4 0 16 70 13 76 -3 7 -17 33 -20 35 -5 3 20 5 25 17 45 11 18 12
18 8 -7 -5 -27 11 -35 26 -13 5 6 8 4 8 -5 0 -13 1 -13 10 0 9 13 10 13 10 0
0 -13 1 -13 10 0 5 8 10 10 10 5 0 -14 57 -18 65 -5 4 6 15 8 26 5 15 -5 18
-3 12 12 -4 14 0 12 17 -6 15 -15 25 -20 28 -13 2 7 8 12 14 12 5 0 23 9 39
21 16 11 29 16 29 10 0 -6 -5 -11 -12 -11 -9 0 -8 -3 1 -12 11 -10 14 -10 18
0 3 6 13 12 23 12 10 0 20 -6 23 -12 3 -8 9 -3 15 12 8 18 11 20 11 8 1 -22
21 -24 21 -3 0 9 6 12 16 8 9 -3 14 -13 11 -24 -4 -14 0 -19 14 -19 10 0 19
-6 20 -12 0 -10 2 -10 6 0 2 6 13 12 22 12 10 0 21 3 25 8 4 4 20 7 36 7 15 0
26 -3 23 -7 -2 -5 5 -8 16 -8 12 0 21 4 21 9 0 5 9 13 20 16 11 4 18 10 15 14
-2 5 7 6 22 3 23 -4 24 -6 10 -17 -10 -7 -17 -18 -17 -26 1 -10 4 -9 11 4 5 9
16 17 23 17 8 0 16 7 20 15 3 8 11 15 18 15 10 0 10 -2 -1 -9 -8 -5 -10 -14
-6 -21 6 -9 10 -8 17 4 8 15 12 15 26 4 10 -7 27 -18 38 -25 19 -10 21 -10 17
8 -6 22 7 25 26 7 10 -11 11 -9 5 7 -7 18 -6 18 9 6 10 -8 27 -11 42 -7 14 4
25 2 25 -4 0 -5 7 -10 16 -10 12 0 11 5 -7 19 -24 20 -9 24 20 7 10 -6 12 -5
7 2 -4 8 -2 10 8 6 11 -4 13 -12 6 -30 -9 -22 -8 -23 9 -15 12 7 22 6 31 -2
10 -9 11 -9 6 0 -10 18 25 33 47 21 13 -6 17 -6 13 0 -3 5 1 13 10 16 8 3 12
2 9 -4 -3 -6 4 -10 17 -10 18 0 20 2 8 10 -13 9 -13 10 0 11 40 5 70 4 70 -2
0 -3 12 -11 26 -17 14 -7 22 -17 19 -22 -3 -5 0 -7 8 -4 9 3 13 13 10 25 -3
10 -9 17 -12 14 -4 -2 -8 2 -8 10 0 8 4 12 9 9 4 -3 8 1 8 8 0 10 2 10 9 -1 5
-8 7 -20 4 -28 -6 -16 11 -17 37 0 16 9 22 9 28 0 6 -10 14 -9 35 2 14 7 26
11 26 7 -4 -25 3 -33 22 -27 16 6 20 4 13 -6 -6 -12 -5 -12 8 -1 9 7 14 22 11
35 -4 17 -2 19 5 8 9 -13 13 -13 28 0 10 8 15 9 11 3 -4 -7 1 -18 10 -25 12
-10 14 -10 9 -1 -4 6 -2 12 3 12 6 0 11 -8 11 -17 0 -15 2 -16 10 -3 5 8 10
11 10 6 0 -5 9 -1 20 9 11 10 20 14 20 9 0 -5 5 -2 10 6 7 11 10 11 10 2 0 -7
4 -11 9 -8 12 8 34 -21 26 -33 -4 -7 1 -8 11 -4 11 4 15 3 10 -5 -3 -6 -2 -13
3 -16 11 -7 9 13 -2 32 -5 7 -3 12 5 12 9 0 9 3 -2 10 -8 5 -10 10 -4 10 6 0
18 -8 25 -17 12 -14 12 -16 0 -8 -9 5 -12 4 -7 -3 4 -7 15 -8 29 -3 15 6 34 4
55 -5 18 -7 32 -10 32 -7 0 3 8 -1 18 -8 13 -11 13 -9 -2 9 -11 12 -26 20 -33
18 -7 -3 -16 0 -20 7 -14 22 -11 36 7 34 11 -1 16 -6 12 -16 -4 -10 -1 -13 12
-8 10 4 15 3 11 -3 -3 -6 -1 -10 4 -10 6 0 12 8 12 18 1 16 2 16 6 -1 2 -9 9
-14 15 -11 7 4 8 2 4 -5 -4 -6 -13 -8 -19 -4 -7 4 -6 0 2 -10 15 -19 26 -23
16 -7 -4 7 2 9 17 7 12 -2 18 -2 11 0 -7 2 -9 11 -6 18 4 12 7 12 19 0 8 -8
22 -11 31 -8 11 4 14 3 9 -5 -5 -8 -2 -10 9 -6 14 6 14 8 -2 20 -16 12 -16 12
6 7 13 -3 22 -2 19 3 -4 5 5 10 18 10 13 1 22 -2 19 -6 -3 -4 2 -11 11 -14 8
-3 12 -11 8 -17 -4 -8 -3 -9 5 -5 9 6 9 11 0 22 -10 12 -9 13 5 8 9 -3 16 -10
16 -15 0 -5 8 -9 18 -9 14 0 15 2 2 10 -12 8 -12 10 5 10 20 1 20 1 1 15 -27
20 -11 19 19 -1 20 -13 28 -14 40 -4 12 10 15 9 15 -5 0 -17 1 -17 20 0 15 14
20 15 20 4 1 -10 4 -9 11 4 12 21 33 23 25 2 -4 -11 2 -15 23 -15 40 0 62 10
54 24 -4 7 -1 7 7 -1 9 -9 17 -9 26 -2 8 7 17 5 27 -6 16 -16 34 -4 22 15 -3
6 1 10 9 10 9 0 16 5 16 12 0 6 3 9 6 5 3 -3 -36 -92 -87 -199z m-675 176 c3
-8 2 -12 -4 -9 -6 3 -10 10 -10 16 0 14 7 11 14 -7z m443 10 c-3 -3 -12 -4
-19 -1 -8 3 -5 6 6 6 11 1 17 -2 13 -5z m-62 -14 c3 -5 2 -10 -4 -10 -5 0 -13
5 -16 10 -3 6 -2 10 4 10 5 0 13 -4 16 -10z m245 0 c0 -5 -2 -10 -4 -10 -3 0
-8 5 -11 10 -3 6 -1 10 4 10 6 0 11 -4 11 -10z m-7423 -6 c-3 -3 -12 -4 -19
-1 -8 3 -5 6 6 6 11 1 17 -2 13 -5z m6585 -12 c3 7 7 4 10 -8 4 -16 1 -20 -15
-19 -14 1 -21 9 -22 25 -2 21 -1 21 11 6 9 -12 13 -14 16 -4z m-6446 -26 c176
-61 205 -85 162 -133 l-20 -22 -28 20 c-15 12 -65 35 -111 53 -84 31 -84 32
-86 69 -1 20 1 37 6 37 4 0 39 -11 77 -24z m5119 4 c-3 -5 -2 -10 4 -10 5 0
11 6 14 13 2 6 7 10 10 7 3 -3 -1 -14 -9 -25 -13 -17 -16 -18 -24 -5 -5 8 -10
11 -10 7 0 -5 -5 -5 -12 -1 -8 5 -6 10 8 15 26 10 26 10 19 -1z m910 0 c3 -5
1 -10 -4 -10 -6 0 -11 5 -11 10 0 6 2 10 4 10 3 0 8 -4 11 -10z m-6127 -35 c2
-19 -2 -35 -8 -35 -5 0 -10 16 -10 35 0 19 4 35 8 35 4 0 9 -16 10 -35z m5567
25 c3 -5 1 -10 -4 -10 -6 0 -11 5 -11 10 0 6 2 10 4 10 3 0 8 -4 11 -10z
m-5731 -29 c13 -21 -27 -29 -164 -34 -170 -5 -320 -39 -458 -102 -104 -48
-131 -36 -39 17 78 45 218 95 317 113 85 15 336 20 344 6z m7729 -13 c3 -10 9
-10 27 0 12 8 19 9 15 3 -3 -6 -1 -11 4 -11 6 0 11 5 11 10 0 6 4 10 10 10 5
0 7 -6 4 -14 -6 -16 26 -17 39 -1 4 6 11 4 17 -5 6 -11 27 -15 70 -15 33 0 60
4 60 8 0 4 9 3 20 -3 22 -12 57 -10 79 4 10 6 18 3 28 -10 12 -16 15 -17 23
-4 8 13 10 12 10 -4 0 -15 3 -16 15 -6 14 12 39 5 31 -9 -3 -4 4 -12 15 -19
16 -10 19 -9 19 7 0 16 5 17 33 12 21 -5 32 -13 32 -24 0 -9 5 -17 10 -18 6 0
15 -5 22 -10 7 -7 14 -6 19 2 4 7 3 9 -3 6 -6 -4 -16 0 -22 7 -9 11 -9 16 0
22 8 4 9 3 5 -5 -6 -9 4 -10 42 -5 30 4 57 2 71 -5 13 -7 21 -8 21 -2 0 7 8 7
23 2 12 -4 30 -7 40 -5 9 1 15 -2 11 -7 -3 -5 0 -9 7 -9 9 0 8 -4 -1 -15 -6
-8 -10 -20 -7 -27 3 -7 6 -4 6 7 1 15 3 17 10 6 6 -9 11 -10 15 -2 4 6 3 11
-3 11 -14 0 -7 33 9 38 7 3 10 0 6 -7 -5 -7 2 -11 19 -11 15 0 35 -5 46 -10
13 -8 19 -7 19 0 0 6 5 8 10 5 8 -5 7 -11 -1 -21 -8 -10 -15 -11 -24 -4 -6 5
-16 6 -20 2 -5 -4 -5 -2 -1 5 4 8 -1 11 -14 10 -18 -1 -19 -3 -6 -13 9 -6 12
-15 8 -19 -4 -5 -1 -5 6 -1 9 5 12 3 10 -7 -2 -9 2 -16 7 -16 6 0 9 6 7 13 -1
7 5 13 13 13 9 0 14 -6 11 -14 -4 -8 -1 -11 5 -8 6 4 8 13 5 21 -3 8 1 14 10
14 8 0 12 5 9 10 -3 6 0 10 9 10 8 0 22 3 30 6 12 5 15 2 10 -10 -3 -9 -17
-19 -30 -22 -17 -4 -24 -13 -23 -28 1 -15 3 -16 6 -5 5 20 53 32 68 18 7 -7 4
-8 -7 -4 -11 4 -18 2 -18 -5 0 -6 -5 -8 -12 -4 -7 4 -8 3 -4 -5 5 -8 12 -9 19
-2 7 5 15 10 19 10 4 1 18 5 30 10 19 7 20 10 7 15 -9 4 -21 6 -27 4 -5 -2 -9
2 -8 7 1 13 27 14 43 2 7 -5 20 -4 31 2 20 11 81 9 100 -3 6 -3 12 0 15 6 3
10 8 10 18 -1 11 -11 11 -12 1 -6 -11 6 -12 3 -3 -13 10 -18 41 -22 41 -5 0 3
-7 2 -16 -1 -10 -4 -14 -2 -11 6 2 7 10 12 17 10 8 -2 10 3 7 13 -6 13 -3 13
28 1 19 -8 35 -12 35 -8 0 4 9 8 20 8 11 0 20 -4 20 -9 0 -4 5 -5 11 -2 6 4 8
14 4 23 -5 12 -1 12 17 -4 13 -10 26 -23 30 -29 5 -6 8 -6 8 1 0 10 13 14 53
15 10 0 15 5 11 12 -5 8 -3 8 7 0 7 -7 28 -13 46 -13 20 0 33 5 33 13 0 6 7 3
16 -8 11 -15 17 -17 23 -7 10 17 41 4 41 -17 0 -21 31 -21 55 -1 14 12 18 12
26 -1 7 -11 9 -10 9 5 0 15 3 16 15 6 8 -7 21 -10 30 -7 8 4 21 -1 30 -9 11
-12 15 -12 15 -2 0 8 3 9 8 3 12 -17 52 -13 53 4 0 11 2 12 6 4 6 -15 53 -18
53 -3 0 5 7 7 15 4 8 -4 23 -3 33 2 25 11 52 13 52 2 0 -5 4 -7 9 -3 5 3 13 0
17 -6 4 -8 9 -7 15 2 7 11 9 11 9 -1 0 -13 2 -13 9 -1 5 8 18 15 29 16 11 1
29 8 39 16 16 13 17 12 5 -3 -11 -14 -10 -17 9 -23 13 -4 24 -2 29 5 5 8 11 7
23 -4 14 -15 16 -14 21 2 3 9 4 -5 2 -33 -1 -27 -6 -59 -10 -70 -6 -15 -3 -13
10 5 10 14 18 28 17 31 -1 3 9 11 22 17 19 9 25 9 25 -1 0 -6 9 3 20 21 11 17
23 32 26 32 4 0 0 -8 -7 -17 -13 -15 -12 -16 8 -11 13 4 26 1 30 -4 4 -7 1 -8
-7 -3 -8 5 -11 4 -6 -3 4 -6 14 -8 22 -5 11 4 12 8 4 13 -9 6 -9 9 -1 14 6 4
8 13 4 19 -4 7 2 5 12 -3 17 -14 18 -13 11 5 -4 11 -4 16 0 12 4 -4 23 20 41
53 19 33 36 60 38 60 2 0 -18 -46 -46 -101 -134 -270 -191 -508 -190 -806 l0
-183 -60 0 c-36 0 -161 23 -322 59 -699 159 -1152 246 -1500 291 -242 31 -505
26 -821 -15 -61 -8 -112 -13 -114 -10 -2 2 34 64 80 137 108 168 209 342 283
483 31 61 61 112 66 113 5 2 7 8 4 13 -4 5 0 6 8 3 8 -3 20 2 27 11 15 18 27
19 33 3z m157 -8 c0 -5 -4 -10 -10 -10 -5 0 -10 5 -10 10 0 6 5 10 10 10 6 0
10 -4 10 -10z m2872 -62 c-63 -94 -112 -185 -147 -273 -32 -77 -45 -99 -45
-71 0 33 53 179 85 236 8 14 21 39 29 55 18 38 98 125 115 125 6 0 -10 -33
-37 -72z m-10472 7 c73 -30 129 -69 117 -82 -2 -2 -33 10 -68 26 -35 15 -89
36 -119 45 -93 29 -86 26 -70 36 25 16 51 11 140 -25z m10710 31 c0 -3 -4 -8
-10 -11 -5 -3 -10 -1 -10 4 0 6 5 11 10 11 6 0 10 -2 10 -4z m-10400 -94 c199
-140 370 -378 455 -635 32 -97 57 -218 36 -172 -6 13 -10 15 -10 5 -2 -35 -22
12 -41 100 -37 166 -102 303 -217 457 -62 83 -209 225 -253 244 -16 8 -30 20
-30 26 0 7 -3 13 -7 13 -5 0 -19 10 -33 21 l-25 21 30 -17 c17 -10 59 -38 95
-63z m3770 68 c0 -5 -8 -10 -17 -10 -15 0 -16 2 -3 10 19 12 20 12 20 0z
m8568 -47 c88 -130 168 -330 193 -485 13 -77 8 -110 -29 -207 -3 -8 -1 -12 4
-8 6 3 16 1 24 -4 13 -8 12 -12 -5 -24 -29 -23 -40 -13 -41 36 -1 24 -4 51 -7
59 -3 8 -5 29 -5 45 1 37 -57 312 -78 369 -22 57 -28 71 -63 150 -17 37 -31
74 -31 82 0 8 -4 14 -10 14 -5 0 -10 7 -10 15 0 29 20 15 58 -42z m-1978 21
c0 -8 -28 -61 -63 -118 -34 -57 -80 -147 -102 -200 -30 -75 -41 -93 -48 -80
-19 34 42 179 135 320 61 92 78 110 78 78z m2740 -25 c-24 -19 -104 -59 -118
-59 -8 0 130 80 138 80 3 0 -6 -10 -20 -21z m-10013 -3 c-3 -7 0 -19 6 -26 9
-10 9 -11 0 -6 -8 5 -13 1 -14 -11 0 -14 -2 -15 -6 -3 -3 8 -11 18 -17 22 -7
5 -7 8 2 8 7 0 10 5 6 12 -4 7 -3 8 4 4 7 -4 12 -2 12 3 0 6 3 11 6 11 3 0 4
-6 1 -14z m-137 -12 c0 -8 -19 -13 -24 -6 -3 5 1 9 9 9 8 0 15 -2 15 -3z m11
-17 c-10 -9 -11 -8 -5 6 3 10 9 15 12 12 3 -3 0 -11 -7 -18z m8639 20 c0 -2
-10 -12 -22 -23 l-23 -19 19 23 c18 21 26 27 26 19z m-880 -17 c0 -5 -7 -7
-15 -4 -8 4 -15 8 -15 10 0 2 7 4 15 4 8 0 15 -4 15 -10z m-7717 -15 c-3 -9
-8 -14 -10 -11 -3 3 -2 9 2 15 9 16 15 13 8 -4z m9243 -42 c45 -69 78 -137
108 -225 33 -98 33 -123 -1 -38 -33 83 -40 90 -37 38 l2 -43 -16 40 c-8 22
-39 85 -67 140 -41 80 -49 104 -41 118 6 9 13 17 16 17 3 0 19 -21 36 -47z
m-9356 22 c0 -8 -2 -15 -4 -15 -2 0 -6 7 -10 15 -3 8 -1 15 4 15 6 0 10 -7 10
-15z m-158 -27 c-8 -8 -9 -4 -5 13 4 13 8 18 11 10 2 -7 -1 -18 -6 -23z
m10708 -27 c0 -11 -3 -22 -7 -24 -5 -3 -8 6 -8 19 0 13 3 24 8 24 4 0 7 -9 7
-19z m-454 -127 c25 -71 47 -130 48 -131 7 -7 65 20 60 28 -3 5 2 6 10 3 9 -3
16 -1 16 6 0 6 5 8 11 4 6 -3 14 -2 18 3 3 5 23 17 44 26 20 10 37 22 37 28 0
6 4 8 9 5 5 -3 14 1 21 9 7 8 19 15 26 15 8 0 14 4 14 9 0 5 8 8 18 7 10 0 17
6 16 16 -1 9 4 14 11 12 7 -3 16 0 21 7 5 8 3 10 -6 4 -9 -6 -11 -4 -5 4 5 9
10 10 18 2 7 -7 14 -7 23 0 9 8 11 5 7 -10 -8 -33 -124 -145 -198 -193 -88
-57 -171 -99 -179 -91 -3 4 -6 24 -6 47 0 22 -20 100 -45 173 -42 123 -53 164
-40 151 3 -3 26 -63 51 -134z m879 -116 c-130 -134 -246 -256 -258 -272 -20
-28 -20 -29 -1 -23 10 3 68 19 127 36 110 31 128 39 160 76 16 18 16 17 -1
-25 -17 -41 -23 -45 -58 -50 -21 -3 -95 -21 -162 -40 l-124 -35 -115 -122
c-63 -68 -123 -123 -132 -123 -10 0 -21 -3 -25 -7 -4 -5 -35 -8 -68 -9 -33 -1
-63 -5 -67 -10 -3 -5 -17 -10 -31 -11 -60 -6 -68 -12 -89 -66 -24 -63 -25 -51
-6 73 8 52 18 150 22 218 3 69 11 126 17 131 18 14 368 149 401 154 26 5 183
50 347 100 38 12 73 39 170 131 68 64 125 116 126 116 2 0 -103 -109 -233
-242z m-13732 94 c101 -112 214 -316 233 -419 l6 -38 -20 20 c-11 11 -32 52
-48 90 -55 141 -156 295 -263 400 -68 66 -71 106 -4 44 25 -23 69 -67 96 -97z
m11050 126 c12 3 17 -4 17 -23 0 -35 37 -223 50 -253 8 -18 17 -23 37 -20 22
2 38 21 90 108 35 58 66 122 69 142 6 32 8 35 21 23 18 -19 22 -19 47 3 23 20
29 31 -114 -203 -51 -82 -90 -152 -88 -155 9 -14 -79 -9 -97 5 -20 16 -20 16
2 6 12 -6 39 -10 60 -10 l38 1 -35 7 c-46 9 -60 18 -60 40 0 14 -54 242 -76
320 -6 19 -4 22 7 15 8 -5 22 -7 32 -6z m3037 -62 c-21 -54 -84 -135 -96 -123
-6 6 34 80 80 144 16 24 31 41 33 39 2 -2 -6 -29 -17 -60z m-12134 30 c1 -7
-4 -13 -12 -13 -9 0 -11 4 -4 12 5 7 8 15 5 18 -3 4 -2 5 2 2 4 -3 8 -11 9
-19z m-119 -28 c2 -17 0 -19 -7 -8 -5 8 -6 18 -4 22 8 12 10 10 11 -14z
m-3467 -14 c0 -4 -23 -32 -52 -63 -28 -31 -63 -75 -78 -99 -26 -42 -27 -42
-44 -23 -17 19 -17 21 12 63 16 24 51 67 77 96 40 44 50 50 66 42 10 -6 19
-13 19 -16z m12090 -51 c0 -2 -10 -34 -22 -71 -12 -37 -21 -75 -20 -84 0 -10
-5 -18 -13 -18 -9 0 -12 9 -10 30 2 16 -1 32 -6 36 -6 3 -3 12 8 20 15 11 16
15 4 23 -11 7 -10 10 4 18 9 6 18 21 18 35 2 18 7 24 20 20 9 -2 17 -6 17 -9z
m3524 -14 c-3 -5 -9 -7 -14 -4 -5 3 -13 -9 -18 -27 -6 -18 -13 -42 -18 -53 -7
-17 -5 -18 8 -8 8 7 18 10 21 7 10 -10 -48 -116 -83 -154 l-32 -34 36 65 c20
36 36 69 36 73 0 4 -16 -9 -35 -29 -21 -23 -40 -35 -49 -32 -9 4 -24 -5 -36
-21 -20 -25 -20 -24 1 13 12 22 41 66 63 98 23 33 48 70 56 82 15 25 50 46 63
38 4 -2 5 -9 1 -14z m-2569 1 c7 -12 -2 -12 -30 0 -19 8 -19 9 2 9 12 1 25 -3
28 -9z m-1591 -124 c-3 -21 -9 -35 -11 -32 -3 3 -2 21 1 42 4 20 10 34 12 31
3 -3 2 -21 -2 -41z m643 22 c-3 -8 -6 -5 -6 6 -1 11 2 17 5 13 3 -3 4 -12 1
-19z m474 -215 c10 -26 -2 -66 -27 -91 -15 -15 -16 -14 -10 5 5 17 1 21 -26
27 -24 5 -29 9 -20 18 26 26 13 47 -48 74 -33 15 -59 29 -57 31 2 2 26 -6 52
-17 26 -11 49 -19 51 -17 2 2 -36 43 -85 90 -49 48 -85 87 -80 87 5 0 9 7 9
16 0 20 229 -192 241 -223z m394 177 c3 -5 1 -10 -4 -10 -6 0 -11 5 -11 10 0
6 2 10 4 10 3 0 8 -4 11 -10z m-12192 -9 c17 -1 18 -7 13 -62 -6 -60 -24 -113
-26 -79 -1 10 -4 9 -10 -5 -12 -27 -12 -55 -1 -55 5 0 12 8 14 18 3 9 5 -5 6
-33 1 -67 -6 -89 -32 -100 -12 -6 -29 -25 -37 -42 -8 -18 -18 -33 -21 -33 -4
0 -21 16 -38 35 -17 20 -40 35 -52 35 -17 0 -19 3 -10 14 12 14 -21 61 -116
169 l-34 38 26 21 c29 23 35 20 50 -22 14 -41 156 -210 176 -210 28 0 39 24
49 105 10 77 5 166 -11 196 -6 12 -3 15 14 13 12 -1 30 -3 40 -3z m13114 -13
c-3 -8 -6 -5 -6 6 -1 11 2 17 5 13 3 -3 4 -12 1 -19z m43 -13 c0 -8 -2 -15 -4
-15 -2 0 -6 7 -10 15 -3 8 -1 15 4 15 6 0 10 -7 10 -15z m-676 -18 c-3 -9 7
-12 38 -10 l43 2 -42 -9 c-36 -7 -221 -105 -247 -130 -4 -5 11 -4 34 1 24 6
50 8 59 7 9 -2 -13 -10 -48 -18 -47 -10 -66 -10 -69 -2 -2 7 -15 4 -38 -9 -32
-18 -35 -18 -32 -2 2 10 40 36 93 63 50 25 115 62 145 82 60 40 72 45 64 25z
m-11731 -57 c6 -23 3 -24 -24 -10 -24 14 -25 30 0 30 10 0 21 -9 24 -20z
m-1757 -3 c2 -7 -11 -60 -30 -118 -19 -57 -36 -113 -39 -124 -4 -16 -5 -16 -6
5 -1 14 -5 31 -10 39 -6 10 -14 -9 -25 -60 -8 -41 -17 -83 -19 -94 -3 -11 -5
-4 -6 16 -1 49 41 215 75 289 25 57 49 75 60 47z m12237 -22 c-3 -32 -26 -54
-31 -28 -2 8 1 19 8 23 9 5 9 9 1 14 -17 11 -13 25 7 21 12 -2 16 -10 15 -30z
m-11076 3 c-3 -8 -6 -5 -6 6 -1 11 2 17 5 13 3 -3 4 -12 1 -19z m70 -20 c-3
-8 -6 -5 -6 6 -1 11 2 17 5 13 3 -3 4 -12 1 -19z m12450 0 c-3 -8 -6 -5 -6 6
-1 11 2 17 5 13 3 -3 4 -12 1 -19z m34 9 c-1 -12 -15 -9 -19 4 -3 6 1 10 8 8
6 -3 11 -8 11 -12z m-12318 -42 c16 -22 16 -26 3 -31 -27 -11 -152 -177 -154
-205 -3 -45 14 -50 123 -33 54 8 109 17 122 20 27 7 29 1 7 -20 -12 -12 -12
-16 -2 -17 21 -1 -223 -40 -269 -42 -34 -2 -40 -4 -31 -17 6 -8 -3 0 -21 18
-17 18 -31 38 -31 45 1 6 8 -1 16 -16 9 -16 18 -26 22 -23 3 4 0 12 -6 18 -7
7 -12 21 -12 33 0 19 195 295 209 295 3 0 14 -12 24 -25z m366 13 c-1 -7 -5
-24 -9 -38 -7 -22 -8 -21 -9 13 -1 20 4 37 9 37 6 0 10 -6 9 -12z m11675 -3
c-7 -16 -24 -21 -24 -6 0 8 7 13 27 20 1 1 0 -6 -3 -14z m-11580 -86 c15 -33
16 -43 6 -49 -34 -21 -103 84 -74 113 12 12 50 -24 68 -64z m11049 54 c-16 -6
-17 -71 -2 -110 12 -32 57 -83 73 -83 6 0 24 14 39 32 16 18 24 24 19 13 -15
-31 -49 -57 -68 -53 -10 2 -31 22 -47 44 -41 59 -51 165 -15 163 10 0 10 -2 1
-6z m2735 -39 c-43 -60 -88 -93 -88 -64 0 6 7 10 14 10 8 0 34 22 58 50 24 27
44 50 46 50 2 0 -12 -21 -30 -46z m-2683 26 c-3 -5 -16 -10 -28 -10 -18 0 -19
2 -7 10 20 13 43 13 35 0z m-12259 -25 c11 -27 -1 -33 -19 -9 -16 21 -16 24
-2 24 9 0 18 -7 21 -15z m8473 -24 c112 -17 208 -28 212 -25 5 3 84 -20 176
-50 162 -54 198 -59 229 -35 6 5 51 6 101 4 193 -10 559 -75 933 -167 183 -44
214 -49 292 -46 l86 4 12 -115 c6 -64 17 -163 25 -221 31 -235 38 -341 24
-355 -11 -10 -139 -14 -584 -19 -313 -4 -590 -9 -615 -11 -25 -2 -225 -6 -445
-9 -220 -4 -519 -8 -665 -11 -146 -3 -400 -7 -565 -10 -165 -3 -379 -7 -475
-10 -96 -3 -281 -7 -410 -10 -322 -7 -605 -14 -790 -20 -85 -3 -290 -7 -455
-10 -165 -3 -354 -7 -420 -10 -66 -3 -244 -7 -395 -10 -151 -3 -329 -7 -395
-10 -66 -3 -248 -7 -405 -10 -901 -17 -1270 -26 -1760 -45 -149 -6 -238 -6
-244 0 -6 6 -4 44 7 102 9 51 19 110 22 130 4 28 11 39 28 43 23 5 105 11 902
70 1688 126 4083 330 4229 360 40 8 86 26 108 42 47 32 153 148 301 330 102
125 110 132 151 138 221 33 499 28 785 -14z m3811 19 c0 -5 -4 -10 -10 -10 -5
0 -10 5 -10 10 0 6 5 10 10 10 6 0 10 -4 10 -10z m194 -50 c5 -17 4 -20 -2
-10 -5 8 -13 26 -16 40 -5 17 -4 20 2 10 5 -8 13 -26 16 -40z m-529 18 c-6
-14 -55 -21 -55 -8 0 10 18 18 42 19 10 1 15 -4 13 -11z m361 0 c11 -17 13
-59 3 -53 -4 3 -23 -2 -40 -11 l-32 -16 7 29 c4 15 7 34 8 41 1 6 4 12 8 12 3
0 12 -6 19 -12 10 -11 11 -10 6 5 -8 19 10 24 21 5z m-12371 -18 c3 -5 1 -10
-4 -10 -6 0 -11 5 -11 10 0 6 2 10 4 10 3 0 8 -4 11 -10z m11565 -14 c0 -8 -4
-17 -9 -20 -10 -7 -23 19 -14 28 11 11 23 6 23 -8z m298 -18 c15 -15 16 -48 2
-48 -5 0 -10 7 -10 16 0 9 -8 23 -17 30 -15 11 -16 13 -2 14 8 0 20 -5 27 -12z
m-11743 -8 c3 -6 -1 -7 -9 -4 -18 7 -21 14 -7 14 6 0 13 -4 16 -10z m11534
-51 c-8 -15 -14 -15 -81 0 -59 13 -74 21 -76 37 l-3 20 85 -21 c71 -17 83 -22
75 -36z m345 -49 c-6 -18 -44 62 -44 94 1 14 9 5 25 -29 14 -27 22 -57 19 -65z
m680 104 c22 -8 20 -44 -4 -96 -35 -74 -47 -91 -55 -78 -4 7 5 24 20 40 29 30
34 55 21 108 -8 34 -7 36 18 26z m93 0 c-3 -3 -12 -4 -19 -1 -8 3 -5 6 6 6 11
1 17 -2 13 -5z m59 -20 c-3 -9 -6 -20 -6 -25 0 -5 -4 -9 -9 -9 -5 0 -7 9 -4
19 3 13 -1 21 -14 24 -12 3 -8 5 11 6 22 1 27 -3 22 -15z m41 -8 c-3 -8 -11
-34 -17 -57 -26 -96 -99 -217 -122 -203 -5 4 -1 15 10 28 17 18 39 58 82 146
4 9 11 35 15 58 4 28 12 42 22 42 9 0 13 -6 10 -14z m50 -2 c-3 -3 -12 -4 -19
-1 -8 3 -5 6 6 6 11 1 17 -2 13 -5z m-12719 -16 c7 -7 12 -18 12 -26 0 -11 -3
-10 -15 2 -12 12 -22 13 -42 5 -33 -12 -43 -3 -17 16 23 18 46 19 62 3z
m12769 6 c-3 -3 -12 -4 -19 -1 -8 3 -5 6 6 6 11 1 17 -2 13 -5z m40 -10 c-3
-3 -12 -4 -19 -1 -8 3 -5 6 6 6 11 1 17 -2 13 -5z m-235 -39 c22 -48 -39 -99
-72 -60 -10 12 -8 16 14 25 27 10 33 24 16 35 -6 4 -8 11 -5 16 11 17 35 9 47
-16z m-12464 3 c-17 -6 -34 -6 -45 1 -14 8 -8 10 27 9 41 -1 43 -2 18 -10z
m-361 -45 c51 -20 91 -38 90 -40 -6 -5 -201 67 -212 79 -12 13 -4 10 122 -39z
m11222 30 c14 -12 -21 -24 -53 -18 -53 10 -48 35 7 28 23 -3 44 -7 46 -10z
m-10014 -13 c12 -5 -1 -6 -35 -3 -30 3 -57 7 -59 9 -9 8 75 2 94 -6z m442 -27
c-3 -10 -5 -4 -5 12 0 17 2 24 5 18 2 -7 2 -21 0 -30z m-607 17 c0 -5 -5 -10
-11 -10 -5 0 -7 5 -4 10 3 6 8 10 11 10 2 0 4 -4 4 -10z m11220 -39 c-6 -12
-15 -19 -21 -16 -13 9 -11 43 4 48 20 7 30 -9 17 -32z m-11096 0 c13 -23 13
-31 2 -46 -15 -20 -32 -5 -22 20 2 7 -1 18 -7 23 -9 8 -12 -5 -11 -54 0 -35 4
-67 7 -71 11 -10 8 -23 -5 -23 -7 0 -13 -10 -14 -22 -1 -34 -12 -89 -18 -96
-4 -3 -13 3 -21 14 -17 22 -20 38 -5 29 6 -3 10 2 11 12 0 10 3 36 5 58 6 54
12 124 13 158 1 39 45 38 65 -2z m-90 -12 c-3 -5 -10 -7 -15 -3 -5 3 -7 10 -3
15 3 5 10 7 15 3 5 -3 7 -10 3 -15z m10846 -26 c0 -20 -18 -15 -30 7 -15 28
-2 46 16 23 7 -10 14 -24 14 -30z m2070 21 c0 -8 -4 -14 -10 -14 -5 0 -10 9
-10 21 0 11 5 17 10 14 6 -3 10 -13 10 -21z m-13916 -4 c49 -21 63 -50 24 -50
-41 0 -98 12 -98 21 0 4 23 5 52 2 37 -5 49 -3 44 5 -4 7 -13 12 -19 12 -17 1
-74 28 -60 29 6 1 32 -8 57 -19z m263 -2 c-3 -8 -6 -5 -6 6 -1 11 2 17 5 13 3
-3 4 -12 1 -19z m11856 15 c4 -3 -11 -26 -33 -49 -22 -24 -40 -53 -40 -64 0
-14 -7 -20 -24 -20 -13 0 -29 -7 -36 -15 -7 -8 -24 -15 -39 -15 l-26 0 25 20
c14 11 37 23 53 26 15 4 27 11 27 15 0 11 72 108 81 108 3 1 9 -2 12 -6z
m-11753 -7 c0 -2 -18 -6 -40 -8 -22 -2 -40 0 -40 4 0 5 18 8 40 8 22 0 40 -2
40 -4z m-254 -21 c25 -19 15 -19 -27 0 -25 10 -29 14 -13 15 11 0 29 -7 40
-15z m594 6 c0 -4 -11 -6 -25 -3 -14 2 -25 6 -25 8 0 2 11 4 25 4 14 0 25 -4
25 -9z m869 -271 c-6 -47 -13 -107 -15 -134 -5 -61 -78 -236 -140 -336 -172
-277 -395 -464 -672 -564 -40 -14 -79 -26 -85 -26 -7 1 30 16 80 35 196 71
396 206 509 344 41 50 32 44 -66 -44 -24 -22 -36 -30 -26 -17 11 12 24 32 30
44 6 12 24 29 39 37 64 36 212 259 274 412 40 100 63 224 71 384 7 148 7 149
10 50 2 -55 -2 -138 -9 -185z m11571 270 c0 -5 -15 -10 -34 -10 -19 0 -38 5
-41 10 -4 6 10 10 34 10 23 0 41 -4 41 -10z m-12150 -10 c0 -5 -4 -10 -10 -10
-5 0 -10 5 -10 10 0 6 5 10 10 10 6 0 10 -4 10 -10z m565 -19 c-6 -5 -22 -13
-37 -16 -21 -5 -28 -3 -28 7 0 17 51 38 65 26 6 -5 6 -11 0 -17z m12968 22
c-13 -2 -33 -2 -45 0 -13 2 -3 4 22 4 25 0 35 -2 23 -4z m-2003 -65 c33 -69
36 -88 18 -106 -22 -22 -31 -12 -25 27 4 29 -1 49 -19 81 -26 46 -29 60 -14
60 6 0 24 -28 40 -62z m1918 55 c-10 -2 -28 -2 -40 0 -13 2 -5 4 17 4 22 1 32
-1 23 -4z m-13603 -13 c3 -5 -3 -10 -14 -10 -11 0 -25 -8 -30 -17 -9 -15 -10
-15 -11 -2 0 30 41 52 55 29z m13061 -26 c-4 -14 -9 -24 -12 -21 -3 2 -2 17 2
31 3 15 9 25 11 22 3 -3 2 -17 -1 -32z m-12906 11 c0 -8 -4 -15 -10 -15 -5 0
-10 7 -10 15 0 8 5 15 10 15 6 0 10 -7 10 -15z m11670 -6 c0 -6 -4 -7 -10 -4
-5 3 -10 11 -10 16 0 6 5 7 10 4 6 -3 10 -11 10 -16z m-12350 -93 l31 -31 36
40 c20 22 31 31 25 20 -17 -34 -60 -68 -77 -62 -21 9 -75 96 -75 121 1 13 6 6
15 -18 8 -22 28 -53 45 -70z m36 92 c-5 8 -1 12 12 12 11 0 22 -9 25 -21 4
-15 -2 -25 -26 -40 -49 -29 -57 -26 -45 21 9 35 13 39 26 28 12 -10 14 -10 8
0z m-1289 -90 c-2 -18 -4 -6 -4 27 0 33 2 48 4 33 2 -15 2 -42 0 -60z m14548
52 c-4 -12 -9 -19 -12 -17 -3 3 -2 15 2 27 4 12 9 19 12 17 3 -3 2 -15 -2 -27z
m-12625 4 c0 -8 -5 -12 -10 -9 -6 4 -8 11 -5 16 9 14 15 11 15 -7z m11225 -10
c25 -25 25 -25 3 -18 -22 7 -38 21 -38 37 0 12 8 8 35 -19z m-12055 1 c0 -8
-4 -15 -10 -15 -5 0 -7 7 -4 15 4 8 8 15 10 15 2 0 4 -7 4 -15z m550 -25 c-7
-17 -15 -28 -18 -26 -2 3 1 19 8 36 7 17 15 28 18 26 2 -3 -1 -19 -8 -36z
m11667 15 c-4 -8 -17 -15 -29 -15 l-23 0 25 20 c27 20 36 19 27 -5z m1510 -42
c-4 -17 -4 -17 -12 0 -4 9 -4 25 0 35 8 16 8 16 12 0 3 -10 3 -26 0 -35z
m-12897 27 c0 -5 -4 -10 -10 -10 -5 0 -10 5 -10 10 0 6 5 10 10 10 6 0 10 -4
10 -10z m12580 -16 c0 -10 -13 -14 -50 -14 -36 0 -50 4 -50 14 0 11 10 13 40
9 27 -4 40 -2 40 6 0 7 5 9 10 6 6 -3 10 -13 10 -21z m-2413 -152 c9 7 13 7
13 -1 0 -6 8 -12 18 -12 9 -1 4 -4 -11 -8 l-28 -6 52 -90 c98 -172 235 -330
350 -405 31 -20 76 -54 100 -75 l44 -38 -40 23 c-263 154 -469 406 -560 686
-36 110 -30 113 12 7 29 -72 40 -90 50 -81z m-9858 139 c12 -21 5 -31 -20 -31
-24 0 -33 18 -19 35 17 20 27 19 39 -4z m-314 0 c3 -5 1 -12 -5 -16 -5 -3 -10
1 -10 9 0 18 6 21 15 7z m10896 -16 c15 10 99 -56 99 -77 0 -21 -1 -21 -68 24
-36 25 -44 27 -56 15 -10 -9 -11 -19 -4 -31 6 -11 6 -33 -1 -64 -6 -26 -12
-69 -13 -96 -3 -49 -2 -51 37 -73 54 -31 69 -26 76 22 6 38 6 38 4 -8 -1 -26
-5 -50 -8 -53 -10 -11 -163 76 -228 130 -55 45 -138 135 -127 137 201 39 234
49 253 74 16 21 21 23 23 11 2 -9 8 -14 13 -11z m-11841 -27 l-1 -43 -14 27
c-8 15 -12 34 -9 42 12 30 24 16 24 -26z m11956 17 c-3 -11 -6 -23 -6 -28 0
-6 -80 41 -80 47 0 1 20 1 45 1 41 0 45 -2 41 -20z m1574 -58 c-95 -265 -305
-518 -545 -657 -54 -31 -35 -14 50 46 85 59 212 179 271 256 24 31 44 59 44
62 0 3 -9 6 -19 6 -11 0 -22 4 -25 9 -4 5 4 7 16 3 13 -3 19 -1 15 5 -3 5 -36
18 -72 28 -36 9 -64 19 -62 21 2 3 30 -2 62 -11 59 -15 82 -12 55 6 -11 7 -2
9 30 7 43 -3 46 -1 76 44 18 26 51 94 75 152 47 110 66 126 29 23z m-901 10
c24 -20 64 -44 88 -53 27 -11 40 -20 32 -24 -15 -10 -3 -30 18 -30 9 0 13 6
10 14 -4 10 -1 13 9 9 26 -10 15 -29 -49 -81 -64 -51 -214 -139 -223 -129 -3
3 -1 29 4 57 10 56 0 178 -17 208 -8 13 -3 23 22 45 18 16 26 26 20 22 -7 -3
-13 -2 -13 4 0 15 24 19 40 7 8 -7 35 -29 59 -49z m-423 43 c29 0 38 -27 19
-56 -18 -28 -56 -32 -79 -8 -29 28 -16 79 18 70 11 -3 31 -6 42 -6z m1625 -31
c-6 -16 -10 -18 -10 -7 -1 22 12 55 16 42 2 -6 -1 -22 -6 -35z m-14762 -173
c31 -114 47 -146 70 -146 11 0 23 5 26 10 3 6 9 10 13 10 12 0 12 -43 0 -57
-16 -20 -6 -24 30 -14 19 6 32 6 32 0 0 -5 -18 -12 -40 -15 -22 -4 -40 -12
-40 -18 0 -29 136 -232 166 -249 20 -11 91 14 237 83 67 32 124 56 126 54 2
-2 -2 -10 -9 -19 -7 -8 -9 -15 -4 -15 17 0 -72 -48 -178 -95 -125 -56 -130
-66 -70 -129 22 -24 8 -15 -36 23 -40 35 -75 67 -78 72 -3 5 -10 7 -15 4 -5
-3 -33 31 -63 77 -124 192 -194 377 -201 538 -4 87 -3 90 5 29 4 -37 18 -101
29 -143z m875 189 c3 -8 1 -15 -4 -15 -6 0 -10 7 -10 15 0 8 2 15 4 15 2 0 6
-7 10 -15z m12445 -4 c6 -10 8 -21 5 -24 -9 -9 -44 16 -44 30 0 20 28 15 39
-6z m-89 -1 c-11 -7 -8 -9 14 -7 27 2 30 -1 33 -29 2 -30 1 -32 -44 -38 -25
-3 -56 -6 -69 -6 l-23 0 25 26 c17 16 24 32 21 45 -4 16 0 19 26 19 24 0 28
-3 17 -10z m-455 -20 c3 -5 1 -10 -4 -10 -6 0 -11 5 -11 10 0 6 2 10 4 10 3 0
8 -4 11 -10z m291 -41 c12 -14 11 -15 -16 -11 -32 5 -33 5 -23 41 5 22 7 22
16 5 5 -11 16 -26 23 -35z m-12174 14 c2 -16 9 -28 17 -28 25 0 21 -19 -9 -43
-34 -26 -50 -22 -75 20 -17 30 -17 31 0 45 11 7 25 13 32 13 7 0 13 5 13 10 0
23 19 8 22 -17z m621 -29 c21 -20 36 -38 33 -41 -7 -7 -86 56 -86 68 0 16 14
9 53 -27z m13219 -25 c-20 -52 -26 -44 -10 14 6 26 15 42 19 36 3 -6 0 -29 -9
-50z m-13738 0 c-3 -6 -7 -9 -8 -7 -1 2 -8 12 -16 22 -14 18 -14 19 8 7 12 -7
20 -17 16 -22z m306 21 c0 -5 -4 -10 -9 -10 -6 0 -13 5 -16 10 -3 6 1 10 9 10
9 0 16 -4 16 -10z m10818 3 c-10 -2 -26 -2 -35 0 -10 3 -2 5 17 5 19 0 27 -2
18 -5z m-9941 -9 c-3 -3 -12 -4 -19 -1 -8 3 -5 6 6 6 11 1 17 -2 13 -5z
m10988 -6 c44 1 91 3 104 4 13 2 26 -2 28 -8 3 -9 -22 -16 -137 -38 -20 -4
-26 -36 -7 -36 26 0 28 -27 13 -142 -6 -45 3 -52 53 -43 44 7 57 27 67 105 11
81 24 68 24 -23 l0 -84 -46 -7 c-60 -8 -208 -8 -257 0 l-38 7 5 81 c2 44 7 88
10 96 3 8 10 34 16 58 l11 43 37 -8 c20 -4 73 -6 117 -5z m-11769 -63 c-3 -8
-10 -15 -15 -15 -7 0 -6 10 1 26 12 26 25 16 14 -11z m-276 8 c0 -5 -8 -29
-18 -55 -13 -35 -21 -45 -31 -38 -21 12 7 100 31 100 10 0 18 -3 18 -7z
m13571 -56 c-13 -13 -15 1 -4 30 7 17 8 17 11 -1 2 -10 -1 -23 -7 -29z
m-14471 23 c0 -5 -4 -10 -10 -10 -5 0 -10 5 -10 10 0 6 5 10 10 10 6 0 10 -4
10 -10z m1030 -10 c12 -8 11 -10 -7 -10 -13 0 -23 5 -23 10 0 13 11 13 30 0z
m726 -84 c-20 -29 -36 -55 -36 -58 0 -3 15 -2 32 1 22 5 34 14 36 26 5 25 54
105 65 105 4 0 -4 -18 -19 -39 -14 -22 -28 -59 -31 -83 -3 -24 -10 -51 -15
-60 -10 -21 -125 -118 -139 -118 -17 0 -9 15 14 25 15 7 23 20 25 40 8 96 14
116 53 162 21 26 39 54 40 63 0 11 2 12 6 2 3 -8 -11 -37 -31 -66z m9855 54
c10 -6 19 -15 19 -21 0 -6 -5 -7 -11 -3 -8 4 -9 -1 -4 -17 6 -21 4 -20 -14 6
-31 44 -28 55 10 35z m-115 -72 c14 -28 20 -48 13 -46 -6 2 -22 28 -35 56 -29
66 -13 58 22 -10z m2364 53 c0 -11 -68 -95 -81 -99 -18 -7 -8 18 21 51 17 19
30 40 30 46 0 6 7 11 15 11 8 0 15 -4 15 -9z m-12676 -17 c35 -34 6 -74 -54
-74 -36 0 -38 74 -2 83 31 8 41 7 56 -9z m-314 -47 c0 -10 -40 5 -52 20 -9 11
-9 16 2 23 9 6 19 1 32 -15 10 -13 18 -25 18 -28z m-782 -68 c18 -34 27 -59
20 -57 -6 2 -27 32 -46 66 -19 34 -28 60 -20 57 7 -3 28 -33 46 -66z m1793 51
c-13 -11 -28 -20 -34 -20 -13 0 -4 9 25 26 33 18 36 16 9 -6z m-221 -82 c0
-31 -15 -68 -23 -58 -5 6 13 90 19 90 2 0 4 -15 4 -32z m10021 10 c11 -21 11
-22 -4 -9 -10 7 -17 17 -17 22 0 15 9 10 21 -13z m-103 -47 c17 -28 29 -51 27
-51 -5 0 -75 97 -75 104 0 15 18 -5 48 -53z m2771 -7 c-12 -21 -25 -32 -27
-26 -4 12 39 75 46 67 2 -2 -6 -21 -19 -41z m-13729 1 c0 -2 -10 -9 -22 -15
-22 -11 -22 -10 -4 4 21 17 26 19 26 11z m130 -18 c0 -4 5 -5 10 -2 11 7 70
-15 70 -26 0 -3 7 -14 16 -25 14 -18 15 -18 9 6 -6 23 -5 24 6 5 7 -11 22 -47
33 -80 16 -45 26 -60 40 -60 15 0 30 -30 76 -155 31 -85 66 -177 78 -204 12
-27 20 -51 17 -54 -3 -3 -5 0 -5 6 0 7 -10 12 -23 12 -20 0 -29 13 -59 83 -20
45 -48 117 -63 160 -17 47 -33 77 -42 77 -8 0 -38 11 -66 24 -29 13 -83 37
-122 53 -125 52 -183 100 -141 116 10 4 12 0 9 -14 -9 -32 22 -22 34 12 9 22
17 30 28 26 8 -4 15 -2 15 3 0 6 7 10 15 10 9 0 12 6 8 17 -4 11 -3 14 5 9 7
-4 12 -3 12 1 0 5 9 9 20 9 11 0 20 -4 20 -9z m483 -9 c12 10 16 9 21 -4 4
-10 12 -14 22 -10 13 5 15 1 10 -18 -7 -28 20 -51 47 -40 10 4 17 -7 26 -40 6
-25 11 -47 11 -50 0 -11 -71 -35 -143 -50 -55 -12 -73 -12 -79 -3 -16 24 -30
92 -25 121 3 17 7 40 9 51 4 24 34 49 48 40 6 -3 10 2 10 11 0 16 1 16 14 -1
11 -16 17 -17 29 -7z m11469 -219 l3 -146 -25 8 c-25 9 -25 10 -28 153 -4 160
1 208 24 199 9 -3 15 2 16 13 3 30 7 -70 10 -227z m483 134 c-10 -54 -31 -140
-47 -191 -16 -51 -27 -100 -24 -107 4 -12 2 -13 -15 -2 -16 10 -21 9 -29 -3
-16 -25 -11 -1 21 115 29 106 59 231 59 249 0 4 7 6 15 2 10 -3 17 3 21 20 4
14 9 23 12 20 2 -3 -3 -49 -13 -103z m-840 49 c-3 -3 -16 5 -28 17 l-22 23 28
-17 c15 -10 25 -20 22 -23z m730 -62 c-10 -50 -21 -93 -26 -95 -4 -3 -4 8 1
25 5 17 9 31 8 33 -1 9 15 124 19 130 14 25 14 -13 -2 -93z m-11485 75 c0 -8
-7 -15 -15 -15 -8 0 -15 7 -15 15 0 8 7 15 15 15 8 0 15 -7 15 -15z m25 -45
c-9 -41 -17 -33 -9 9 4 17 9 30 11 27 3 -2 2 -19 -2 -36z m10711 -1 c4 -8 1
-8 -14 0 -12 6 -24 16 -28 22 -4 8 -1 8 14 0 12 -6 24 -16 28 -22z m1945 -12
l-23 -22 17 28 c10 15 20 25 23 22 3 -3 -5 -16 -17 -28z m-12860 -27 c5 0 9 5
9 10 0 6 4 10 9 10 13 0 40 -126 66 -310 8 -58 17 -111 20 -119 4 -11 2 -11
-9 -2 -7 6 -20 9 -29 5 -12 -4 -17 9 -27 68 -6 40 -22 138 -36 218 -13 80 -23
150 -23 155 1 6 4 0 6 -12 2 -13 9 -23 14 -23z m11961 -32 c-24 -11 -60 -22
-80 -24 -29 -4 -23 0 28 19 79 29 111 33 52 5z m838 2 c0 -5 -5 -10 -11 -10
-5 0 -7 5 -4 10 3 6 8 10 11 10 2 0 4 -4 4 -10z m-11880 -20 c-6 -11 -13 -20
-16 -20 -2 0 0 9 6 20 6 11 13 20 16 20 2 0 0 -9 -6 -20z m10614 -6 c9 -3 13
-10 10 -15 -3 -5 9 -9 26 -9 21 0 29 -4 24 -11 -8 -14 -195 -6 -234 10 -22 8
-22 10 -5 11 l20 1 -20 9 c-23 10 153 14 179 4z m303 -10 c-3 -3 -12 -4 -19
-1 -8 3 -5 6 6 6 11 1 17 -2 13 -5z m941 -6 c-2 -6 -10 -14 -16 -16 -7 -2 -10
2 -6 12 7 18 28 22 22 4z m-981 -4 c-3 -3 -12 -4 -19 -1 -8 3 -5 6 6 6 11 1
17 -2 13 -5z m-12956 -264 c80 -59 216 -134 321 -176 35 -14 50 -22 35 -19
-60 12 -211 85 -306 149 -94 62 -291 244 -291 267 0 6 37 -29 83 -77 45 -48
116 -113 158 -144z m351 124 c113 -47 274 -93 332 -96 25 -1 23 -2 -14 -8 -44
-7 -44 -7 -10 -9 19 -2 46 -7 60 -11 16 -6 0 -7 -40 -3 -66 6 -127 20 -100 23
14 1 -49 22 -169 55 -64 18 -208 95 -176 95 2 0 55 -21 117 -46z m1598 -17 c0
-2 -10 -12 -22 -23 l-23 -19 19 23 c18 21 26 27 26 19z m-1995 -27 c10 -11 16
-20 13 -20 -3 0 -13 9 -23 20 -10 11 -16 20 -13 20 3 0 13 -9 23 -20z m1091
-87 c25 -25 26 -27 8 -40 -20 -14 -44 -17 -45 -5 0 4 -2 16 -5 27 -4 21 2 45
10 45 3 0 17 -12 32 -27z m-591 -207 c28 -8 41 -14 30 -14 -21 0 -107 25 -90
27 6 0 33 -6 60 -13z m599 -6 c-12 -5 -43 -11 -70 -14 l-49 -5 55 13 c63 16
95 19 64 6z m-754 -10 c0 -5 -5 -10 -11 -10 -5 0 -7 5 -4 10 3 6 8 10 11 10 2
0 4 -4 4 -10z m253 -7 c-7 -2 -21 -2 -30 0 -10 3 -4 5 12 5 17 0 24 -2 18 -5z
m75 -10 c-10 -2 -28 -2 -40 0 -13 2 -5 4 17 4 22 1 32 -1 23 -4z m285 0 c-13
-2 -33 -2 -45 0 -13 2 -3 4 22 4 25 0 35 -2 23 -4z m-120 -10 c-23 -2 -64 -2
-90 0 -26 2 -7 3 42 3 50 0 71 -1 48 -3z"/>
<path d="M17000 3000 c0 -5 5 -10 10 -10 6 0 10 5 10 10 0 6 -4 10 -10 10 -5
0 -10 -4 -10 -10z"/>
<path d="M3349 2663 c-19 -21 -43 -49 -54 -63 -11 -14 1 -3 27 25 26 27 51 49
56 48 5 -1 9 5 9 13 0 8 -1 14 -2 14 0 0 -17 -17 -36 -37z"/>
<path d="M3091 2253 c-26 -71 -42 -152 -39 -207 1 -40 1 -40 5 -6 5 51 34 179
50 224 21 63 8 53 -16 -11z"/>
<path d="M11160 3005 c0 -8 4 -15 10 -15 5 0 7 7 4 15 -4 8 -8 15 -10 15 -2 0
-4 -7 -4 -15z"/>
<path d="M11280 3009 c0 -6 -5 -7 -12 -3 -6 4 -8 3 -5 -3 7 -12 40 -11 47 2 3
4 -3 9 -12 11 -10 1 -18 -2 -18 -7z"/>
<path d="M10005 2990 c-3 -5 -1 -10 4 -10 6 0 11 5 11 10 0 6 -2 10 -4 10 -3
0 -8 -4 -11 -10z"/>
<path d="M9943 2975 c0 -8 4 -12 9 -9 4 3 8 9 8 15 0 5 -4 9 -8 9 -5 0 -9 -7
-9 -15z"/>
<path d="M11015 2980 c3 -5 8 -10 11 -10 2 0 4 5 4 10 0 6 -5 10 -11 10 -5 0
-7 -4 -4 -10z"/>
<path d="M9820 2970 c0 -5 5 -10 11 -10 5 0 7 5 4 10 -3 6 -8 10 -11 10 -2 0
-4 -4 -4 -10z"/>
<path d="M9575 2960 c-3 -5 -1 -10 4 -10 6 0 11 5 11 10 0 6 -2 10 -4 10 -3 0
-8 -4 -11 -10z"/>
<path d="M7845 2769 c-4 -6 -5 -12 -2 -15 2 -3 7 2 10 11 7 17 1 20 -8 4z"/>
<path d="M7059 2623 c-7 -10 -9 -15 -5 -11 5 4 15 3 22 -3 9 -7 12 -6 10 5 -3
25 -12 28 -27 9z"/>
<path d="M7123 2625 c0 -8 4 -12 9 -9 5 3 6 10 3 15 -9 13 -12 11 -12 -6z"/>
<path d="M6813 2599 c-2 -23 3 -25 10 -4 4 8 3 16 -1 19 -4 3 -9 -4 -9 -15z"/>
<path d="M7521 2564 c0 -11 3 -14 6 -6 3 7 2 16 -1 19 -3 4 -6 -2 -5 -13z"/>
<path d="M7310 2510 c0 -5 5 -10 11 -10 5 0 7 5 4 10 -3 6 -8 10 -11 10 -2 0
-4 -4 -4 -10z"/>
<path d="M12491 2924 c0 -11 3 -14 6 -6 3 7 2 16 -1 19 -3 4 -6 -2 -5 -13z"/>
<path d="M12560 2905 c-7 -9 -19 -14 -27 -11 -8 4 -11 1 -8 -5 4 -6 13 -8 20
-5 7 2 23 -3 36 -11 12 -9 19 -11 15 -5 -4 7 -2 12 6 12 8 0 6 5 -5 11 -9 6
-15 14 -12 20 10 15 -12 10 -25 -6z"/>
<path d="M12847 2856 c-14 -11 -15 -15 -4 -19 8 -3 20 0 27 6 10 9 11 9 6 0
-4 -7 -2 -13 4 -13 14 0 9 32 -5 36 -5 2 -18 -3 -28 -10z"/>
<path d="M12777 2845 c2 -7 10 -12 17 -12 7 0 13 5 13 12 0 6 -8 11 -18 11 -9
0 -15 -5 -12 -11z"/>
<path d="M13236 2825 c-11 -8 -14 -15 -8 -15 7 0 12 -7 12 -15 0 -8 4 -15 8
-15 5 0 8 10 7 23 -1 12 3 25 9 29 6 5 7 8 1 8 -5 -1 -19 -7 -29 -15z"/>
<path d="M13280 2818 c0 -4 4 -8 9 -8 6 0 12 4 15 8 3 5 -1 9 -9 9 -8 0 -15
-4 -15 -9z"/>
<path d="M13680 2819 c0 -5 5 -7 10 -4 6 3 10 8 10 11 0 2 -4 4 -10 4 -5 0
-10 -5 -10 -11z"/>
<path d="M13785 2820 c-3 -5 -1 -10 4 -10 6 0 11 5 11 10 0 6 -2 10 -4 10 -3
0 -8 -4 -11 -10z"/>
<path d="M14293 2817 c5 -17 34 -21 34 -4 0 7 -9 14 -19 14 -11 1 -18 -3 -15
-10z"/>
<path d="M14145 2800 c3 -5 8 -10 11 -10 2 0 4 5 4 10 0 6 -5 10 -11 10 -5 0
-7 -4 -4 -10z"/>
<path d="M14513 2774 c0 -9 4 -11 12 -4 7 5 14 9 16 7 2 -1 3 0 1 2 -7 11 -29
7 -29 -5z"/>
<path d="M14130 2320 c-8 -5 -100 -10 -205 -10 -104 0 -184 -4 -177 -9 7 -4
12 -14 10 -21 -2 -7 3 -15 10 -17 9 -3 12 1 10 13 -2 11 4 20 15 22 12 2 17
-3 17 -20 0 -16 3 -19 9 -10 11 18 93 29 89 12 -4 -17 32 -22 39 -4 3 8 11 14
19 14 7 0 11 -6 8 -13 -3 -9 7 -14 31 -15 24 -2 37 2 41 13 4 9 19 15 39 15
19 0 37 5 40 10 9 14 58 13 73 -2 7 -7 12 -8 12 -2 0 29 -49 44 -80 24z"/>
<path d="M12213 2108 c2 -13 18 -61 35 -108 16 -47 37 -108 45 -135 14 -48 14
-51 -3 -51 -10 0 -16 5 -13 10 4 5 1 6 -8 0 -8 -5 -25 -10 -39 -12 -13 -2 -27
-6 -30 -10 -3 -4 -16 -13 -29 -20 -19 -11 -22 -11 -15 0 6 10 5 11 -7 1 -8 -6
-23 -13 -34 -15 -11 -1 -22 -6 -25 -9 -3 -4 -16 -9 -30 -10 -14 -2 -27 -6 -30
-9 -3 -3 -16 -11 -29 -18 -19 -11 -22 -11 -15 0 6 10 5 10 -7 2 -15 -12 -91
-39 -98 -35 -2 2 -7 -2 -10 -7 -4 -6 -18 -12 -33 -14 -15 -2 -30 -7 -34 -11
-4 -4 -17 -7 -30 -7 -12 0 -24 -5 -26 -10 -2 -6 -17 -13 -33 -16 -17 -3 -41
-12 -54 -21 -17 -11 -21 -11 -15 -2 6 11 5 12 -7 3 -8 -6 -34 -16 -59 -23 -25
-6 -54 -16 -65 -21 -11 -5 -36 -14 -55 -19 l-35 -9 40 -2 c107 -4 -45 -23
-567 -70 -310 -28 -660 -59 -778 -70 -602 -55 -2482 -207 -3100 -250 -239 -17
-550 -40 -690 -51 -278 -22 -385 -41 -185 -33 66 2 246 9 400 14 410 15 1171
47 1805 75 850 38 2252 98 2695 115 395 15 576 30 599 49 6 6 184 53 395 106
478 119 920 237 995 265 94 36 88 59 -36 121 -125 63 -515 227 -712 300 l-78
29 5 -22z"/>
<path d="M12714 2089 c-5 -8 -3 -9 6 -4 9 5 11 4 6 -4 -6 -9 -11 -9 -22 0 -13
11 -19 5 -14 -16 1 -5 -9 -1 -22 10 -13 11 -20 16 -16 11 10 -12 -10 -48 -23
-41 -5 4 -9 12 -9 18 0 7 4 6 10 -3 8 -13 10 -12 10 2 0 16 -21 19 -50 8 -3
-2 -8 -2 -12 -1 -5 0 -8 -2 -9 -6 0 -5 -2 -16 -4 -25 -2 -10 1 -18 7 -18 6 0
7 7 4 16 -4 10 -1 14 6 12 7 -3 13 -11 13 -18 0 -7 8 -14 18 -16 10 -1 14 2
10 9 -4 6 0 8 10 4 9 -3 19 -2 22 3 8 13 36 0 28 -14 -3 -6 0 -5 8 2 12 11 12
14 -1 22 -9 6 -10 10 -3 10 7 0 16 -6 20 -12 4 -7 20 -13 35 -14 15 0 25 3 22
7 -6 10 24 5 33 -6 4 -4 2 -5 -6 0 -10 6 -12 4 -7 -4 6 -8 12 -9 20 -2 9 7 16
7 24 -1 13 -13 54 -19 46 -7 -2 4 4 6 13 4 10 -2 24 -4 31 -4 8 -1 10 -6 6
-13 -5 -9 -2 -9 9 1 9 7 17 9 17 4 0 -5 10 -9 23 -10 12 -1 33 -5 47 -9 61
-18 4 8 -120 54 -174 64 -177 65 -186 51z m-107 -26 c-4 -3 -2 -12 4 -19 7 -8
6 -14 -2 -20 -7 -4 -9 -3 -5 4 3 6 2 13 -4 17 -10 6 -5 25 7 25 4 0 3 -3 0 -7z
m49 -21 c-17 -16 -18 -16 -5 5 7 12 15 20 18 17 3 -2 -3 -12 -13 -22z m81 3
c0 -8 -4 -12 -9 -9 -5 3 -6 10 -3 15 9 13 12 11 12 -6z"/>
<path d="M12521 2046 c17 -18 21 -19 29 -6 14 23 13 25 -19 26 l-30 2 20 -22z"/>
<path d="M14305 1818 c-230 -43 -323 -59 -409 -68 -54 -7 -108 -14 -120 -17
-11 -2 -26 -5 -33 -5 -7 -1 -10 -5 -7 -10 3 -5 10 -6 15 -3 5 4 9 1 9 -4 0 -6
5 -11 11 -11 5 0 7 6 3 13 -4 6 2 4 13 -5 11 -10 25 -18 31 -18 7 0 12 -6 12
-12 0 -9 4 -8 10 2 8 13 10 12 10 -3 0 -10 4 -16 9 -12 5 3 12 1 16 -5 4 -6
11 -8 16 -5 5 4 9 1 9 -5 0 -7 7 -9 16 -6 8 3 12 2 9 -4 -8 -12 43 -33 62 -26
8 3 11 1 8 -4 -3 -6 -2 -10 4 -10 5 0 12 6 15 13 4 6 4 2 2 -11 -2 -12 0 -19
5 -16 6 3 15 1 22 -4 7 -5 20 -8 30 -7 9 2 15 -1 12 -5 -6 -10 7 -20 35 -25
14 -3 18 0 14 8 -4 7 -4 9 1 5 4 -4 14 -3 22 4 11 9 13 8 11 -3 -2 -8 2 -13 8
-12 66 12 66 12 54 -3 -14 -15 -10 -17 14 -8 9 3 14 10 11 14 -3 5 -1 12 5 15
6 4 9 3 8 -2 -2 -4 2 -8 7 -8 6 0 9 3 8 8 -4 11 14 9 52 -7 18 -8 36 -12 39
-10 3 2 4 1 1 -3 -3 -3 1 -13 8 -21 7 -10 8 -13 1 -9 -8 4 -11 -3 -10 -22 1
-25 9 -34 12 -13 0 4 4 15 9 25 6 15 10 16 17 5 7 -10 15 -5 37 20 l28 32 -2
-30 c-1 -16 2 -30 7 -30 5 0 7 17 4 38 -3 20 -5 39 -6 41 0 2 -8 -3 -17 -10
-17 -13 -17 -12 0 7 16 19 16 30 5 138 l-12 116 -51 -1 c-27 -1 -72 -6 -100
-11z m-160 -208 c-3 -5 -12 -10 -18 -10 -7 0 -6 4 3 10 19 12 23 12 15 0z
m245 -8 c-8 -3 -22 -10 -30 -16 -13 -9 -13 -9 -3 5 7 9 10 18 7 22 -3 3 4 3
17 0 16 -5 19 -8 9 -11z m-326 -14 c-3 -5 -12 -4 -20 3 -19 16 -18 18 6 12 11
-3 17 -9 14 -15z m106 6 c0 -8 -5 -12 -10 -9 -6 4 -8 11 -5 16 9 14 15 11 15
-7z m108 -9 c1 -1 -6 -5 -18 -8 -11 -3 -18 -1 -14 4 3 5 -2 9 -10 9 -8 0 -17
4 -21 10 -4 7 51 -6 63 -15z m-171 9 c-3 -3 -12 -4 -19 -1 -8 3 -5 6 6 6 11 1
17 -2 13 -5z m96 -8 c4 -10 1 -13 -8 -9 -8 3 -12 9 -9 14 7 12 11 11 17 -5z
m-85 -31 c-3 -3 -9 2 -12 12 -6 14 -5 15 5 6 7 -7 10 -15 7 -18z m317 -5 c-1
-11 -4 -22 -7 -25 -4 -5 -4 34 1 43 4 8 7 -1 6 -18z"/>
<path d="M14290 1545 c-7 -8 -16 -13 -20 -10 -10 6 -43 -25 -35 -33 3 -4 10 0
15 8 8 13 10 13 10 1 0 -11 4 -10 13 4 9 12 16 14 21 7 4 -8 15 -8 31 -2 23 9
25 7 25 -16 0 -14 -4 -23 -10 -19 -6 4 -8 10 -5 15 3 4 -1 7 -7 6 -22 -3 -37
-16 -34 -29 1 -7 1 -9 -1 -4 -3 4 -10 4 -16 0 -7 -3 -4 3 6 14 9 11 14 23 10
26 -3 4 -13 -2 -20 -13 -11 -16 -18 -18 -34 -10 -11 6 -17 15 -14 20 3 5 1 11
-5 15 -6 4 -7 11 -4 17 4 7 2 8 -5 4 -7 -4 -9 -17 -6 -29 5 -19 4 -19 -9 3 -9
14 -15 21 -16 16 0 -5 -7 -3 -15 4 -12 10 -15 9 -15 -4 0 -10 4 -15 9 -11 6 3
19 -5 30 -17 12 -12 21 -18 21 -13 0 4 9 -2 20 -15 11 -13 20 -20 20 -17 0 3
19 0 41 -8 47 -17 60 -19 40 -6 -8 5 -16 18 -17 28 -3 17 -2 17 12 -1 8 -11
14 -16 14 -11 0 5 7 -1 15 -13 15 -21 17 -21 40 -6 26 17 32 38 16 49 -6 3 -8
-3 -6 -13 4 -21 -30 -48 -40 -32 -4 6 -5 27 -3 47 2 33 0 38 -29 49 -26 11
-33 11 -43 -1z"/>
<path d="M14449 1514 c-13 -16 -22 -71 -10 -58 3 3 6 9 6 12 1 4 7 18 14 30
15 29 9 39 -10 16z"/>
<path d="M15690 1585 c0 -8 7 -15 15 -15 8 0 15 7 15 15 0 8 -7 15 -15 15 -8
0 -15 -7 -15 -15z"/>
<path d="M16539 1658 c-9 -17 -13 -18 -21 -7 -8 12 -9 11 -5 -1 5 -21 71 -20
75 1 5 26 -36 31 -49 7z"/>
<path d="M16582 1538 c3 -7 13 -15 22 -16 12 -3 17 1 14 10 -3 7 -13 15 -22
16 -12 3 -17 -1 -14 -10z"/>
<path d="M16148 1703 c7 -3 16 -2 19 1 4 3 -2 6 -13 5 -11 0 -14 -3 -6 -6z"/>
<path d="M3894 1626 c-4 -10 -2 -22 4 -28 8 -8 13 -7 18 6 4 10 2 22 -4 28 -8
8 -13 7 -18 -6z"/>
<path d="M16030 1485 c0 -8 5 -15 10 -15 6 0 10 7 10 15 0 8 -4 15 -10 15 -5
0 -10 -7 -10 -15z"/>
<path d="M16146 1443 c-11 -11 -6 -23 9 -23 8 0 15 4 15 9 0 13 -16 22 -24 14z"/>
<path d="M4400 1430 c-12 -7 -12 -12 -2 -22 9 -9 15 -9 24 0 16 16 -2 34 -22
22z"/>
<path d="M3986 1143 c-11 -11 -6 -23 9 -23 8 0 15 4 15 9 0 13 -16 22 -24 14z"/>
<path d="M4110 1125 c0 -8 7 -15 15 -15 8 0 15 7 15 15 0 8 -7 15 -15 15 -8 0
-15 -7 -15 -15z"/>
<path d="M4472 1109 c2 -6 8 -10 13 -10 5 0 11 4 13 10 2 6 -4 11 -13 11 -9 0
-15 -5 -13 -11z"/>
<path d="M4710 870 c0 -11 7 -20 15 -20 8 0 15 9 15 20 0 11 -7 20 -15 20 -8
0 -15 -9 -15 -20z"/>
<path d="M11988 5773 c7 -3 16 -2 19 1 4 3 -2 6 -13 5 -11 0 -14 -3 -6 -6z"/>
<path d="M12848 5713 c7 -3 16 -2 19 1 4 3 -2 6 -13 5 -11 0 -14 -3 -6 -6z"/>
<path d="M12923 5703 c9 -2 25 -2 35 0 9 3 1 5 -18 5 -19 0 -27 -2 -17 -5z"/>
<path d="M13080 5686 c43 -8 81 -10 90 -5 11 6 8 8 -11 9 -14 0 -55 2 -90 5
l-64 5 75 -14z"/>
<path d="M15244 5444 c-18 -14 -18 -15 4 -4 12 6 22 13 22 15 0 8 -5 6 -26
-11z"/>
<path d="M15125 5365 c-44 -30 -74 -55 -67 -55 12 0 152 97 152 106 0 8 -7 4
-85 -51z"/>
<path d="M13285 5275 c-16 -7 -23 -14 -15 -14 8 0 26 6 40 14 32 18 14 18 -25
0z"/>
<path d="M15572 5245 c2 -3 45 -9 94 -14 49 -6 208 -26 354 -46 146 -19 308
-40 360 -45 52 -5 238 -29 413 -53 174 -23 317 -40 317 -36 0 15 -102 48 -195
63 -234 37 -659 83 -1075 116 -286 22 -275 22 -268 15z"/>
<path d="M15808 5194 c-5 -4 -8 -16 -8 -28 0 -14 3 -17 11 -9 6 6 9 19 7 28
-1 9 -6 13 -10 9z"/>
<path d="M17355 5108 c22 -11 79 -45 128 -76 48 -30 90 -53 93 -50 10 10 -225
149 -251 148 -5 -1 8 -10 30 -22z"/>
<path d="M15739 5103 c-13 -16 -12 -17 4 -4 16 13 21 21 13 21 -2 0 -10 -8
-17 -17z"/>
<path d="M15699 5073 c-13 -16 -12 -17 4 -4 16 13 21 21 13 21 -2 0 -10 -8
-17 -17z"/>
<path d="M15620 5019 c-22 -18 -22 -19 -3 -10 12 6 25 16 28 21 9 15 3 12 -25
-11z"/>
<path d="M15505 4948 c-27 -17 -75 -42 -105 -56 -45 -19 -49 -22 -21 -18 39 7
210 108 179 106 -2 0 -25 -15 -53 -32z"/>
<path d="M15265 4860 c-27 -7 -27 -8 -5 -8 14 0 39 4 55 8 27 7 27 8 5 8 -14
0 -38 -4 -55 -8z"/>
<path d="M15198 4843 c6 -2 18 -2 25 0 6 3 1 5 -13 5 -14 0 -19 -2 -12 -5z"/>
<path d="M15148 4833 c7 -3 16 -2 19 1 4 3 -2 6 -13 5 -11 0 -14 -3 -6 -6z"/>
<path d="M15088 4823 c7 -3 16 -2 19 1 4 3 -2 6 -13 5 -11 0 -14 -3 -6 -6z"/>
<path d="M15038 4813 c7 -3 16 -2 19 1 4 3 -2 6 -13 5 -11 0 -14 -3 -6 -6z"/>
<path d="M14988 4803 c7 -3 16 -2 19 1 4 3 -2 6 -13 5 -11 0 -14 -3 -6 -6z"/>
<path d="M14938 4793 c7 -3 16 -2 19 1 4 3 -2 6 -13 5 -11 0 -14 -3 -6 -6z"/>
<path d="M14888 4783 c7 -3 16 -2 19 1 4 3 -2 6 -13 5 -11 0 -14 -3 -6 -6z"/>
<path d="M14828 4773 c6 -2 18 -2 25 0 6 3 1 5 -13 5 -14 0 -19 -2 -12 -5z"/>
<path d="M14788 4763 c7 -3 16 -2 19 1 4 3 -2 6 -13 5 -11 0 -14 -3 -6 -6z"/>
<path d="M18896 4644 c-23 -23 -20 -30 4 -9 11 10 20 20 20 22 0 7 -9 2 -24
-13z"/>
<path d="M18834 4588 l-19 -23 23 19 c21 18 27 26 19 26 -2 0 -12 -10 -23 -22z"/>
<path d="M3185 4111 c-3 -5 -2 -12 3 -15 5 -3 9 1 9 9 0 17 -3 19 -12 6z"/>
<path d="M3150 4095 c-11 -13 -10 -14 4 -9 9 3 16 10 16 15 0 13 -6 11 -20 -6z"/>
<path d="M4518 4043 c6 -2 18 -2 25 0 6 3 1 5 -13 5 -14 0 -19 -2 -12 -5z"/>
<path d="M7347 4043 c-3 -5 5 -8 18 -8 13 0 21 3 18 8 -2 4 -10 7 -18 7 -8 0
-16 -3 -18 -7z"/>
<path d="M6700 3915 c0 -2 6 -8 13 -14 10 -8 14 -7 14 2 0 8 -6 14 -14 14 -7
0 -13 -1 -13 -2z"/>
<path d="M18890 3910 c0 -5 5 -10 11 -10 5 0 7 5 4 10 -3 6 -8 10 -11 10 -2 0
-4 -4 -4 -10z"/>
<path d="M7166 3499 c3 -5 12 -9 21 -9 19 0 9 13 -12 16 -8 1 -13 -2 -9 -7z"/>
<path d="M1990 3234 c-355 -86 -908 -244 -1000 -286 -30 -14 -74 -22 -132 -26
-49 -2 -88 -8 -88 -13 0 -11 61 -11 120 1 25 4 46 7 48 5 2 -2 -12 -34 -31
-71 -42 -84 -73 -171 -65 -180 4 -3 67 4 140 15 172 28 170 28 193 45 19 14
18 15 -12 7 -18 -5 -63 -12 -100 -15 -76 -7 -66 2 30 29 36 10 57 21 57 30 0
8 6 15 13 15 8 0 22 9 33 21 37 41 204 139 237 139 16 0 191 85 229 112 17 12
51 20 96 23 38 2 92 13 120 24 118 47 348 172 311 170 -8 0 -97 -21 -199 -45z"/>
<path d="M2815 2761 c-3 -5 -1 -12 5 -16 5 -3 10 1 10 9 0 18 -6 21 -15 7z"/>
<path d="M857 2210 c-9 -23 -17 -30 -39 -30 -30 0 -35 -9 -16 -28 16 -16 59
-15 82 3 19 15 19 15 1 29 -19 14 -14 53 5 41 6 -4 8 -11 5 -16 -4 -5 -1 -9 4
-9 14 0 14 13 -1 28 -19 19 -29 14 -41 -18z"/>
<path d="M490 2165 c-75 -15 -140 -40 -140 -53 0 -5 6 -14 13 -20 9 -8 43 -1
127 25 63 20 117 38 120 40 7 6 -23 23 -40 22 -8 -1 -44 -7 -80 -14z"/>
<path d="M560 2119 c-143 -41 -205 -66 -202 -83 2 -9 -9 -31 -23 -50 -14 -18
-25 -38 -25 -43 0 -6 -6 -22 -13 -36 -11 -22 -11 -44 -1 -129 24 -190 29 -282
14 -273 -10 6 -12 4 -7 -8 4 -11 2 -14 -7 -11 -7 3 -20 -6 -30 -20 -19 -30
-21 -40 -4 -30 7 4 8 3 4 -5 -4 -6 -11 -9 -16 -6 -14 9 -50 -14 -50 -31 0 -8
-11 -19 -24 -24 -13 -5 -28 -15 -32 -22 -6 -11 -5 -11 8 0 14 11 16 10 11 -7
-6 -22 11 -29 22 -11 4 7 12 7 18 2 7 -4 19 -8 27 -7 28 2 104 -77 120 -125
19 -56 44 -69 201 -104 166 -37 186 -35 294 24 91 50 105 63 38 35 -20 -8 -37
-14 -38 -13 -2 2 96 61 216 132 120 70 223 134 229 141 7 9 4 20 -12 41 -19
25 -366 398 -534 574 -29 30 -62 67 -74 83 -25 31 -24 31 -110 6z m-190 -785
c0 -11 -8 -14 -30 -10 -19 3 -36 -1 -45 -11 -8 -8 -15 -12 -15 -10 0 3 -3 13
-7 23 -4 11 -3 15 4 11 6 -4 26 -1 44 7 37 15 49 13 49 -10z"/>
<path d="M1334 1397 c-12 -6 -71 -42 -131 -79 -61 -36 -129 -76 -151 -87 -47
-24 -54 -34 -18 -25 14 3 34 -1 48 -10 14 -9 28 -13 31 -9 4 3 7 0 7 -7 0 -7
3 -10 7 -7 3 4 13 1 21 -6 13 -10 14 -9 7 3 -8 13 -7 13 8 1 12 -9 17 -10 17
-2 0 7 4 10 8 7 5 -3 42 -6 83 -7 41 -2 80 -7 88 -13 11 -8 13 -8 7 2 -4 7 -1
12 9 12 10 0 13 -5 9 -12 -6 -9 -3 -9 9 0 16 14 162 20 174 8 3 -3 12 -1 20 5
17 15 105 19 121 6 9 -7 11 -5 5 9 -6 16 -5 17 9 6 14 -11 18 -10 27 5 7 13
10 14 11 4 0 -8 3 -11 7 -8 3 4 -2 17 -13 29 -10 12 -13 18 -5 13 11 -6 13 -4
8 9 -4 9 -3 14 2 11 5 -3 12 -1 16 5 4 6 12 7 24 1 13 -7 18 -6 18 5 0 7 -2
12 -4 10 -3 -2 -19 2 -36 9 -24 10 -413 126 -421 125 0 0 -11 -6 -22 -13z"/>
<path d="M1770 1238 c-11 -23 -11 -23 6 -3 16 20 16 20 11 -3 -3 -12 -1 -20 4
-16 12 7 12 31 0 39 -6 3 -15 -5 -21 -17z"/>
</g>
</svg>
